%TF.GenerationSoftware,KiCad,Pcbnew,8.0.4*%
%TF.CreationDate,2024-12-20T20:39:33-05:00*%
%TF.ProjectId,SurroundSensePCB,53757272-6f75-46e6-9453-656e73655043,rev?*%
%TF.SameCoordinates,Original*%
%TF.FileFunction,Soldermask,Top*%
%TF.FilePolarity,Negative*%
%FSLAX46Y46*%
G04 Gerber Fmt 4.6, Leading zero omitted, Abs format (unit mm)*
G04 Created by KiCad (PCBNEW 8.0.4) date 2024-12-20 20:39:33*
%MOMM*%
%LPD*%
G01*
G04 APERTURE LIST*
%ADD10R,2.470000X0.980000*%
%ADD11R,2.470000X3.600000*%
%ADD12C,2.000000*%
%ADD13R,0.800000X0.400000*%
%ADD14R,0.400000X0.800000*%
%ADD15R,0.800000X0.800000*%
%ADD16R,1.200000X1.200000*%
%ADD17O,1.800000X1.200000*%
%ADD18O,2.000000X1.100000*%
G04 APERTURE END LIST*
D10*
%TO.C,U3*%
X136611000Y-95236000D03*
X136611000Y-97536000D03*
X136611000Y-99836000D03*
D11*
X142281000Y-97536000D03*
%TD*%
D12*
%TO.C,J4*%
X133096000Y-99314000D03*
%TD*%
D13*
%TO.C,U1*%
X129163500Y-80257000D03*
X129163500Y-81107000D03*
X129163500Y-81957000D03*
X129163500Y-82807000D03*
X129163500Y-83657000D03*
X129163500Y-84507000D03*
X129163500Y-85357000D03*
X129163500Y-86207000D03*
X129163500Y-87057000D03*
X129163500Y-87907000D03*
X129163500Y-88757000D03*
X129163500Y-89607000D03*
X129163500Y-90457000D03*
X129163500Y-91307000D03*
X129163500Y-92157000D03*
D14*
X130188500Y-93232000D03*
X131038500Y-93232000D03*
X131888500Y-93232000D03*
X132738500Y-93232000D03*
X133588500Y-93232000D03*
X134438500Y-93232000D03*
X135288500Y-93232000D03*
X136138500Y-93232000D03*
X136988500Y-93232000D03*
X137838500Y-93232000D03*
X138688500Y-93232000D03*
X139538500Y-93232000D03*
X140388500Y-93232000D03*
X141238500Y-93232000D03*
X142088500Y-93232000D03*
D13*
X143113500Y-92157000D03*
X143113500Y-91307000D03*
X143113500Y-90457000D03*
X143113500Y-89607000D03*
X143113500Y-88757000D03*
X143113500Y-87907000D03*
X143113500Y-87057000D03*
X143113500Y-86207000D03*
X143113500Y-85357000D03*
X143113500Y-84507000D03*
X143113500Y-83657000D03*
X143113500Y-82807000D03*
X143113500Y-81957000D03*
X143113500Y-81107000D03*
X143113500Y-80257000D03*
D14*
X142088500Y-79182000D03*
X141238500Y-79182000D03*
X140388500Y-79182000D03*
X139538500Y-79182000D03*
X138688500Y-79182000D03*
X137838500Y-79182000D03*
X136988500Y-79182000D03*
X136138500Y-79182000D03*
X135288500Y-79182000D03*
X134438500Y-79182000D03*
X133588500Y-79182000D03*
X132738500Y-79182000D03*
X131888500Y-79182000D03*
X131038500Y-79182000D03*
X130188500Y-79182000D03*
D15*
X129138500Y-79207000D03*
X129138500Y-93207000D03*
D16*
X134488500Y-84557000D03*
X134488500Y-86207000D03*
X134488500Y-87857000D03*
X136138500Y-84557000D03*
X136138500Y-86207000D03*
X136138500Y-87857000D03*
X137788500Y-84557000D03*
X137788500Y-86207000D03*
X137788500Y-87857000D03*
D15*
X143138500Y-79207000D03*
X143138500Y-93207000D03*
%TD*%
D12*
%TO.C,J3*%
X130048000Y-99314000D03*
%TD*%
D17*
%TO.C,USB1*%
X141494500Y-82035000D03*
D18*
X137294500Y-82035000D03*
D17*
X141494500Y-90685000D03*
D18*
X137294500Y-90685000D03*
%TD*%
M02*
