%TF.GenerationSoftware,KiCad,Pcbnew,8.0.4*%
%TF.CreationDate,2024-12-29T16:28:47-05:00*%
%TF.ProjectId,SurroundSensePCB,53757272-6f75-46e6-9453-656e73655043,rev?*%
%TF.SameCoordinates,Original*%
%TF.FileFunction,Copper,L4,Bot*%
%TF.FilePolarity,Positive*%
%FSLAX46Y46*%
G04 Gerber Fmt 4.6, Leading zero omitted, Abs format (unit mm)*
G04 Created by KiCad (PCBNEW 8.0.4) date 2024-12-29 16:28:47*
%MOMM*%
%LPD*%
G01*
G04 APERTURE LIST*
G04 Aperture macros list*
%AMRoundRect*
0 Rectangle with rounded corners*
0 $1 Rounding radius*
0 $2 $3 $4 $5 $6 $7 $8 $9 X,Y pos of 4 corners*
0 Add a 4 corners polygon primitive as box body*
4,1,4,$2,$3,$4,$5,$6,$7,$8,$9,$2,$3,0*
0 Add four circle primitives for the rounded corners*
1,1,$1+$1,$2,$3*
1,1,$1+$1,$4,$5*
1,1,$1+$1,$6,$7*
1,1,$1+$1,$8,$9*
0 Add four rect primitives between the rounded corners*
20,1,$1+$1,$2,$3,$4,$5,0*
20,1,$1+$1,$4,$5,$6,$7,0*
20,1,$1+$1,$6,$7,$8,$9,0*
20,1,$1+$1,$8,$9,$2,$3,0*%
%AMFreePoly0*
4,1,46,0.210000,0.267000,0.193500,0.240000,0.179000,0.211500,0.166000,0.182000,0.155000,0.152000,0.146000,0.121500,0.138500,0.090000,0.133500,0.058500,0.130500,0.027000,0.129500,-0.005000,0.130500,-0.037000,0.133500,-0.069000,0.138500,-0.100500,0.146000,-0.132000,0.155000,-0.162500,0.166000,-0.192500,0.179000,-0.222000,0.193500,-0.250000,0.210000,-0.277500,-0.005000,-0.492500,
-0.029500,-0.458500,-0.052500,-0.423500,-0.073500,-0.387000,-0.092500,-0.350000,-0.109500,-0.311500,-0.124500,-0.272500,-0.137500,-0.232500,-0.148500,-0.192000,-0.157000,-0.151000,-0.163500,-0.109500,-0.168000,-0.068000,-0.170000,-0.026000,-0.170000,0.015500,-0.168000,0.057500,-0.163500,0.099000,-0.157000,0.140500,-0.148500,0.181500,-0.137500,0.222000,-0.124500,0.262000,-0.109500,0.301000,
-0.092500,0.339500,-0.073500,0.376500,-0.052500,0.413000,-0.029500,0.448000,-0.005000,0.482000,0.210000,0.267000,0.210000,0.267000,$1*%
%AMFreePoly1*
4,1,47,0.492000,-0.005000,0.458500,-0.030000,0.423000,-0.052500,0.387000,-0.073500,0.349500,-0.092500,0.311500,-0.109500,0.272000,-0.124500,0.232500,-0.137500,0.192000,-0.148500,0.151000,-0.157000,0.109500,-0.164000,0.068000,-0.168000,0.026000,-0.170500,-0.016000,-0.170500,-0.058000,-0.168000,-0.099500,-0.164000,-0.141000,-0.157000,-0.182000,-0.148500,-0.222500,-0.137500,-0.262000,-0.124500,
-0.301500,-0.109500,-0.339500,-0.092500,-0.377000,-0.073500,-0.413000,-0.052500,-0.448500,-0.030000,-0.482000,-0.005000,-0.482500,-0.005000,-0.267500,0.210000,-0.240000,0.193500,-0.211500,0.178500,-0.182500,0.165500,-0.152500,0.154500,-0.121500,0.145500,-0.090500,0.138500,-0.059000,0.133500,-0.027000,0.130500,0.005000,0.129500,0.037000,0.130500,0.069000,0.133500,0.100500,0.138500,
0.131500,0.145500,0.162000,0.154500,0.192500,0.165500,0.221500,0.178500,0.250000,0.193500,0.277500,0.210000,0.492000,-0.005000,0.492000,-0.005000,$1*%
%AMFreePoly2*
4,1,46,0.058000,0.168500,0.099500,0.164000,0.141000,0.157500,0.182000,0.148500,0.222500,0.137500,0.262000,0.125000,0.301000,0.109500,0.339500,0.092500,0.377000,0.073500,0.413000,0.052500,0.448500,0.030000,0.482000,0.005000,0.267500,-0.210000,0.240000,-0.193500,0.211500,-0.178500,0.182500,-0.165500,0.152000,-0.154500,0.121500,-0.145500,0.090500,-0.138500,0.059000,-0.133500,
0.027000,-0.130500,-0.005000,-0.129000,-0.037000,-0.130500,-0.069000,-0.133500,-0.100500,-0.138500,-0.131500,-0.145500,-0.162500,-0.154500,-0.192500,-0.165500,-0.221500,-0.178500,-0.250000,-0.193500,-0.277500,-0.210000,-0.492500,0.005000,-0.458500,0.030000,-0.423000,0.052500,-0.387000,0.073500,-0.349500,0.092500,-0.311500,0.109500,-0.272000,0.125000,-0.232500,0.137500,-0.192000,0.148500,
-0.151000,0.157500,-0.109500,0.164000,-0.068000,0.168500,-0.026000,0.170500,0.016000,0.170500,0.058000,0.168500,0.058000,0.168500,$1*%
%AMFreePoly3*
4,1,47,0.029500,0.458500,0.052500,0.423500,0.073500,0.387000,0.092500,0.349500,0.109500,0.311500,0.124500,0.272500,0.137500,0.232500,0.148500,0.192000,0.157000,0.151000,0.163500,0.109500,0.168000,0.068000,0.170000,0.026000,0.170000,-0.016000,0.168000,-0.057500,0.163500,-0.099500,0.157000,-0.141000,0.148500,-0.181500,0.137500,-0.222000,0.124500,-0.262000,0.109500,-0.301000,
0.092500,-0.339500,0.073500,-0.377000,0.052500,-0.413000,0.029500,-0.448000,0.005000,-0.482000,-0.210000,-0.267500,-0.193500,-0.240000,-0.179000,-0.211500,-0.166000,-0.182000,-0.155000,-0.152000,-0.146000,-0.121500,-0.138500,-0.090500,-0.133500,-0.059000,-0.130500,-0.027000,-0.129500,0.005000,-0.130500,0.037000,-0.133500,0.069000,-0.138500,0.100500,-0.146000,0.131500,-0.155000,0.162500,
-0.166000,0.192500,-0.179000,0.221500,-0.193500,0.250000,-0.210000,0.277500,0.004500,0.492500,0.005000,0.492500,0.029500,0.458500,0.029500,0.458500,$1*%
G04 Aperture macros list end*
%TA.AperFunction,SMDPad,CuDef*%
%ADD10C,2.000000*%
%TD*%
%TA.AperFunction,SMDPad,CuDef*%
%ADD11RoundRect,0.140000X-0.140000X-0.170000X0.140000X-0.170000X0.140000X0.170000X-0.140000X0.170000X0*%
%TD*%
%TA.AperFunction,SMDPad,CuDef*%
%ADD12RoundRect,0.135000X0.135000X0.185000X-0.135000X0.185000X-0.135000X-0.185000X0.135000X-0.185000X0*%
%TD*%
%TA.AperFunction,SMDPad,CuDef*%
%ADD13RoundRect,0.135000X-0.135000X-0.185000X0.135000X-0.185000X0.135000X0.185000X-0.135000X0.185000X0*%
%TD*%
%TA.AperFunction,SMDPad,CuDef*%
%ADD14RoundRect,0.140000X0.170000X-0.140000X0.170000X0.140000X-0.170000X0.140000X-0.170000X-0.140000X0*%
%TD*%
%TA.AperFunction,SMDPad,CuDef*%
%ADD15R,1.300000X0.300000*%
%TD*%
%TA.AperFunction,SMDPad,CuDef*%
%ADD16R,1.100000X0.550000*%
%TD*%
%TA.AperFunction,SMDPad,CuDef*%
%ADD17R,1.100000X0.300000*%
%TD*%
%TA.AperFunction,ComponentPad*%
%ADD18O,1.800000X1.200000*%
%TD*%
%TA.AperFunction,ComponentPad*%
%ADD19O,2.000000X1.100000*%
%TD*%
%TA.AperFunction,SMDPad,CuDef*%
%ADD20R,0.700000X0.600000*%
%TD*%
%TA.AperFunction,SMDPad,CuDef*%
%ADD21RoundRect,0.140000X0.140000X0.170000X-0.140000X0.170000X-0.140000X-0.170000X0.140000X-0.170000X0*%
%TD*%
%TA.AperFunction,SMDPad,CuDef*%
%ADD22RoundRect,0.218750X0.218750X0.256250X-0.218750X0.256250X-0.218750X-0.256250X0.218750X-0.256250X0*%
%TD*%
%TA.AperFunction,SMDPad,CuDef*%
%ADD23R,0.522000X0.725000*%
%TD*%
%TA.AperFunction,SMDPad,CuDef*%
%ADD24FreePoly0,90.000000*%
%TD*%
%TA.AperFunction,SMDPad,CuDef*%
%ADD25FreePoly1,90.000000*%
%TD*%
%TA.AperFunction,SMDPad,CuDef*%
%ADD26FreePoly2,90.000000*%
%TD*%
%TA.AperFunction,SMDPad,CuDef*%
%ADD27FreePoly3,90.000000*%
%TD*%
%TA.AperFunction,ViaPad*%
%ADD28C,0.600000*%
%TD*%
%TA.AperFunction,Conductor*%
%ADD29C,0.100000*%
%TD*%
%TA.AperFunction,Conductor*%
%ADD30C,0.200000*%
%TD*%
G04 APERTURE END LIST*
D10*
%TO.P,J2,1,Pin_1*%
%TO.N,/out-*%
X130048000Y-99314000D03*
%TD*%
D11*
%TO.P,C2,1*%
%TO.N,+3.3V*%
X130358000Y-81788000D03*
%TO.P,C2,2*%
%TO.N,GND*%
X131318000Y-81788000D03*
%TD*%
D12*
%TO.P,R3,1*%
%TO.N,/en*%
X140970000Y-79248000D03*
%TO.P,R3,2*%
%TO.N,+3.3V*%
X139950000Y-79248000D03*
%TD*%
D13*
%TO.P,R5,1*%
%TO.N,/sda*%
X135888000Y-93218000D03*
%TO.P,R5,2*%
%TO.N,+3.3V*%
X136908000Y-93218000D03*
%TD*%
D14*
%TO.P,C6,1*%
%TO.N,+3.3V*%
X137036000Y-100302000D03*
%TO.P,C6,2*%
%TO.N,GND*%
X137036000Y-99342000D03*
%TD*%
D10*
%TO.P,J1,1,Pin_1*%
%TO.N,/out+*%
X133096000Y-99314000D03*
%TD*%
D12*
%TO.P,R2,1*%
%TO.N,Net-(USB1-CC1)*%
X135638000Y-84836000D03*
%TO.P,R2,2*%
%TO.N,GND*%
X134618000Y-84836000D03*
%TD*%
D13*
%TO.P,R4,1*%
%TO.N,+3.3V*%
X133346000Y-79248000D03*
%TO.P,R4,2*%
%TO.N,Net-(D1-A)*%
X134366000Y-79248000D03*
%TD*%
D15*
%TO.P,U2,1,REG*%
%TO.N,Net-(U2-REG)*%
X137350000Y-97901000D03*
%TO.P,U2,2,SCL*%
%TO.N,/scl*%
X137350000Y-97401000D03*
%TO.P,U2,3,SDA*%
%TO.N,/sda*%
X137350000Y-96901000D03*
%TO.P,U2,4,IN/TRIG*%
%TO.N,unconnected-(U2-IN{slash}TRIG-Pad4)*%
X137350000Y-96401000D03*
%TO.P,U2,5,EN*%
%TO.N,+3.3V*%
X137350000Y-95901000D03*
%TO.P,U2,6,VDD/NC*%
X142050000Y-95901000D03*
%TO.P,U2,7,OUT+*%
%TO.N,/out+*%
X142050000Y-96401000D03*
%TO.P,U2,8,GND*%
%TO.N,GND*%
X142050000Y-96901000D03*
%TO.P,U2,9,OUT-*%
%TO.N,/out-*%
X142050000Y-97401000D03*
%TO.P,U2,10,VDD*%
%TO.N,+3.3V*%
X142050000Y-97901000D03*
%TD*%
D16*
%TO.P,USB1,1,GND*%
%TO.N,GND*%
X136744500Y-83160000D03*
%TO.P,USB1,2,VBUS*%
%TO.N,+5V*%
X136744500Y-83960000D03*
D17*
%TO.P,USB1,3,SBU2*%
%TO.N,unconnected-(USB1-SBU2-Pad3)*%
X136744500Y-84610000D03*
%TO.P,USB1,4,CC1*%
%TO.N,Net-(USB1-CC1)*%
X136744500Y-85110000D03*
%TO.P,USB1,5,DN2*%
%TO.N,/usb_n*%
X136744500Y-85610000D03*
%TO.P,USB1,6,DP1*%
%TO.N,/usb_p*%
X136744500Y-86110000D03*
%TO.P,USB1,7,DN1*%
%TO.N,/usb_n*%
X136744500Y-86610000D03*
%TO.P,USB1,8,DP2*%
%TO.N,/usb_p*%
X136744500Y-87110000D03*
%TO.P,USB1,9,SBU1*%
%TO.N,unconnected-(USB1-SBU1-Pad9)*%
X136744500Y-87610000D03*
%TO.P,USB1,10,CC2*%
%TO.N,Net-(USB1-CC2)*%
X136744500Y-88110000D03*
D16*
%TO.P,USB1,11,VBUS*%
%TO.N,+5V*%
X136744500Y-88760000D03*
%TO.P,USB1,12,GND*%
%TO.N,GND*%
X136744500Y-89560000D03*
D18*
%TO.P,USB1,13,SHELL*%
X141494500Y-82035000D03*
D19*
X137294500Y-82035000D03*
D18*
%TO.P,USB1,14,SHELL*%
X141494500Y-90685000D03*
D19*
X137294500Y-90685000D03*
%TD*%
D12*
%TO.P,R1,1*%
%TO.N,Net-(USB1-CC2)*%
X135636000Y-88138000D03*
%TO.P,R1,2*%
%TO.N,GND*%
X134616000Y-88138000D03*
%TD*%
D11*
%TO.P,C9,1*%
%TO.N,+3.3V*%
X133096000Y-93726000D03*
%TO.P,C9,2*%
%TO.N,GND*%
X134056000Y-93726000D03*
%TD*%
%TO.P,C1,1*%
%TO.N,+3.3V*%
X130330000Y-82804000D03*
%TO.P,C1,2*%
%TO.N,GND*%
X131290000Y-82804000D03*
%TD*%
D20*
%TO.P,SW1,1,A*%
%TO.N,/en*%
X129420000Y-85653000D03*
%TO.P,SW1,2,A&apos;*%
%TO.N,unconnected-(SW1-A&apos;-Pad2)*%
X132200000Y-85653000D03*
%TO.P,SW1,3,B*%
%TO.N,GND*%
X129420000Y-84527000D03*
%TO.P,SW1,4,B&apos;*%
%TO.N,unconnected-(SW1-B&apos;-Pad4)*%
X132200000Y-84527000D03*
%TD*%
D21*
%TO.P,C8,1*%
%TO.N,GND*%
X140152000Y-99695000D03*
%TO.P,C8,2*%
%TO.N,Net-(U2-REG)*%
X139192000Y-99695000D03*
%TD*%
D14*
%TO.P,C5,1*%
%TO.N,+3.3V*%
X135890000Y-100302000D03*
%TO.P,C5,2*%
%TO.N,GND*%
X135890000Y-99342000D03*
%TD*%
D20*
%TO.P,SW2,1,A*%
%TO.N,GND*%
X132200000Y-87067000D03*
%TO.P,SW2,2,A&apos;*%
%TO.N,unconnected-(SW2-A&apos;-Pad2)*%
X129420000Y-87067000D03*
%TO.P,SW2,3,B*%
%TO.N,/boot*%
X132200000Y-88193000D03*
%TO.P,SW2,4,B&apos;*%
%TO.N,unconnected-(SW2-B&apos;-Pad4)*%
X129420000Y-88193000D03*
%TD*%
D21*
%TO.P,C3,1*%
%TO.N,GND*%
X133604000Y-83312000D03*
%TO.P,C3,2*%
%TO.N,/en*%
X132644000Y-83312000D03*
%TD*%
D14*
%TO.P,C7,1*%
%TO.N,+3.3V*%
X138052000Y-100302000D03*
%TO.P,C7,2*%
%TO.N,GND*%
X138052000Y-99342000D03*
%TD*%
D22*
%TO.P,D1,1,K*%
%TO.N,GND*%
X137439500Y-79248000D03*
%TO.P,D1,2,A*%
%TO.N,Net-(D1-A)*%
X135864500Y-79248000D03*
%TD*%
D11*
%TO.P,C4,1*%
%TO.N,GND*%
X140010000Y-80264000D03*
%TO.P,C4,2*%
%TO.N,/en*%
X140970000Y-80264000D03*
%TD*%
D13*
%TO.P,R6,1*%
%TO.N,/scl*%
X135888000Y-92202000D03*
%TO.P,R6,2*%
%TO.N,+3.3V*%
X136908000Y-92202000D03*
%TD*%
D23*
%TO.P,MIC1,1,DATA*%
%TO.N,/mic_data*%
X131826000Y-95910000D03*
%TO.P,MIC1,2,SELECT*%
%TO.N,GND*%
X131004000Y-95910000D03*
D24*
%TO.P,MIC1,3,GND*%
X129747000Y-95701500D03*
D25*
X130381500Y-95077000D03*
D26*
X129123000Y-95067000D03*
D27*
X129757500Y-94442500D03*
D23*
%TO.P,MIC1,4,CLK*%
%TO.N,/mic_clk*%
X131004000Y-94234000D03*
%TO.P,MIC1,5,VDD*%
%TO.N,+3.3V*%
X131826000Y-94234000D03*
%TD*%
D28*
%TO.N,GND*%
X131572000Y-100584000D03*
X137668000Y-80518000D03*
X140462000Y-96901000D03*
X130302000Y-80264000D03*
X134620000Y-94488000D03*
X129032000Y-96266000D03*
X141224000Y-100203000D03*
X135890000Y-83058000D03*
X143256000Y-94234000D03*
X135128000Y-99060000D03*
X133350000Y-84582000D03*
X135128000Y-89154000D03*
X139192000Y-80772000D03*
X133858000Y-82550000D03*
X130302000Y-84455000D03*
X134620000Y-80264000D03*
X132080000Y-81788000D03*
X134874000Y-83566000D03*
X133350000Y-87122000D03*
%TO.N,+3.3V*%
X131445000Y-80645000D03*
X131318000Y-89662000D03*
X138938000Y-80010000D03*
X135636000Y-90932000D03*
X132842000Y-80264000D03*
X132969000Y-94615000D03*
X138938000Y-100584000D03*
X139700000Y-94996000D03*
%TO.N,/en*%
X142240000Y-80264000D03*
%TO.N,/out+*%
X138565054Y-97908946D03*
X134898805Y-100305195D03*
%TO.N,/out-*%
X139954000Y-97536000D03*
X130302000Y-96774000D03*
%TO.N,/sda*%
X134493000Y-91567000D03*
X138557000Y-94742000D03*
X136144000Y-94234000D03*
%TO.N,/scl*%
X135220144Y-96094388D03*
X133985000Y-95250000D03*
X130429000Y-90932000D03*
%TO.N,/boot*%
X130556000Y-83566000D03*
%TO.N,/mic_data*%
X132334000Y-95123000D03*
%TO.N,/usb_p*%
X139446000Y-87630000D03*
X137795000Y-92329000D03*
X139197705Y-91901822D03*
%TO.N,/usb_n*%
X139700000Y-86868000D03*
%TO.N,/mic_clk*%
X131064000Y-95147498D03*
%TO.N,+5V*%
X136017000Y-98426002D03*
%TD*%
D29*
%TO.N,GND*%
X129757500Y-94442500D02*
X129747500Y-94442500D01*
D30*
X135410000Y-99342000D02*
X135128000Y-99060000D01*
X134618000Y-84836000D02*
X134618000Y-83822000D01*
D29*
X129955500Y-95910000D02*
X131004000Y-95910000D01*
D30*
X131318000Y-81788000D02*
X131318000Y-82776000D01*
X137036000Y-99342000D02*
X138052000Y-99342000D01*
X134618000Y-83822000D02*
X134874000Y-83566000D01*
X133295000Y-87067000D02*
X133350000Y-87122000D01*
D29*
X130381500Y-95077000D02*
X130381500Y-95066500D01*
D30*
X140010000Y-80264000D02*
X139700000Y-80264000D01*
X129032000Y-96266000D02*
X129182500Y-96266000D01*
D29*
X129757000Y-95701500D02*
X130381500Y-95077000D01*
D30*
X130302000Y-84455000D02*
X129492000Y-84455000D01*
X131318000Y-82776000D02*
X131290000Y-82804000D01*
X135534000Y-89560000D02*
X135128000Y-89154000D01*
X135890000Y-99342000D02*
X135410000Y-99342000D01*
X134620000Y-94488000D02*
X134620000Y-94290000D01*
X134616000Y-88642000D02*
X135128000Y-89154000D01*
X136744500Y-89560000D02*
X135534000Y-89560000D01*
X136652000Y-90678000D02*
X136675000Y-90701000D01*
X132200000Y-87067000D02*
X133295000Y-87067000D01*
X129182500Y-96266000D02*
X129747000Y-95701500D01*
X133604000Y-82804000D02*
X133858000Y-82550000D01*
X136715000Y-83058000D02*
X136817000Y-83160000D01*
X137668000Y-79476500D02*
X137439500Y-79248000D01*
D29*
X129123000Y-95067000D02*
X129123000Y-95077500D01*
X129747000Y-95701500D02*
X129955500Y-95910000D01*
D30*
X140152000Y-99695000D02*
X140716000Y-99695000D01*
X135890000Y-83058000D02*
X136715000Y-83058000D01*
X137668000Y-80518000D02*
X137668000Y-79476500D01*
D29*
X130381500Y-95066500D02*
X129757500Y-94442500D01*
D30*
X131318000Y-81788000D02*
X132080000Y-81788000D01*
X134616000Y-88138000D02*
X134616000Y-88642000D01*
X136675000Y-90701000D02*
X136675000Y-90995660D01*
D29*
X129123000Y-95077500D02*
X129747000Y-95701500D01*
D30*
X140716000Y-99695000D02*
X141224000Y-100203000D01*
X142547000Y-96901000D02*
X140462000Y-96901000D01*
X133604000Y-83312000D02*
X133604000Y-82804000D01*
X134620000Y-94290000D02*
X134056000Y-93726000D01*
X129492000Y-84455000D02*
X129420000Y-84527000D01*
D29*
X129747500Y-94442500D02*
X129123000Y-95067000D01*
D30*
X135890000Y-99342000D02*
X137036000Y-99342000D01*
X139700000Y-80264000D02*
X139192000Y-80772000D01*
X142050000Y-96901000D02*
X142547000Y-96901000D01*
D29*
X129747000Y-95701500D02*
X129757000Y-95701500D01*
D30*
%TO.N,+3.3V*%
X136908000Y-92202000D02*
X136908000Y-93218000D01*
X142900000Y-96051000D02*
X142750000Y-95901000D01*
X137350000Y-95100471D02*
X138308471Y-94142000D01*
X142750000Y-95901000D02*
X142050000Y-95901000D01*
X132842000Y-79752000D02*
X133346000Y-79248000D01*
X138846000Y-94142000D02*
X139700000Y-94996000D01*
X138308471Y-94142000D02*
X138846000Y-94142000D01*
X132842000Y-80264000D02*
X132842000Y-79752000D01*
X138938000Y-100584000D02*
X138334000Y-100584000D01*
X142900000Y-97751000D02*
X142900000Y-96051000D01*
X132334000Y-93726000D02*
X131826000Y-94234000D01*
X133220000Y-90170000D02*
X134366000Y-90170000D01*
X137350000Y-95901000D02*
X137350000Y-95100471D01*
X131826000Y-90170000D02*
X133220000Y-90170000D01*
X138334000Y-100584000D02*
X138052000Y-100302000D01*
X132969000Y-93853000D02*
X133096000Y-93726000D01*
X130330000Y-81760000D02*
X130330000Y-82804000D01*
X133096000Y-93726000D02*
X132334000Y-93726000D01*
X131445000Y-80645000D02*
X130330000Y-81760000D01*
X137036000Y-100302000D02*
X138052000Y-100302000D01*
X132969000Y-94615000D02*
X132969000Y-93853000D01*
X135636000Y-90932000D02*
X135839514Y-90932000D01*
X131318000Y-89662000D02*
X131826000Y-90170000D01*
X139700000Y-79248000D02*
X138938000Y-80010000D01*
X136908000Y-92000486D02*
X136908000Y-92202000D01*
X140605000Y-95901000D02*
X139700000Y-94996000D01*
X135890000Y-100302000D02*
X137036000Y-100302000D01*
X142050000Y-97901000D02*
X142750000Y-97901000D01*
X134366000Y-90170000D02*
X135382000Y-90170000D01*
X142050000Y-95901000D02*
X140605000Y-95901000D01*
X142750000Y-97901000D02*
X142900000Y-97751000D01*
X135839514Y-90932000D02*
X136908000Y-92000486D01*
X139950000Y-79248000D02*
X139700000Y-79248000D01*
%TO.N,/en*%
X142240000Y-80264000D02*
X140970000Y-80264000D01*
X138589000Y-81185000D02*
X138811000Y-81407000D01*
X132644000Y-82915471D02*
X134374471Y-81185000D01*
X139827000Y-81407000D02*
X140970000Y-80264000D01*
X140970000Y-80264000D02*
X140970000Y-79248000D01*
X132644000Y-83312000D02*
X132364001Y-83312000D01*
X132644000Y-83312000D02*
X132644000Y-82915471D01*
X132364001Y-83312000D02*
X130023001Y-85653000D01*
X134374471Y-81185000D02*
X138589000Y-81185000D01*
X130023001Y-85653000D02*
X129420000Y-85653000D01*
X138811000Y-81407000D02*
X139827000Y-81407000D01*
%TO.N,Net-(U2-REG)*%
X137707999Y-97901000D02*
X137350000Y-97901000D01*
X139192000Y-99385001D02*
X137707999Y-97901000D01*
X139192000Y-99695000D02*
X139192000Y-99385001D01*
%TO.N,Net-(D1-A)*%
X134366000Y-79248000D02*
X135864500Y-79248000D01*
%TO.N,/out+*%
X133907610Y-99314000D02*
X133096000Y-99314000D01*
X134898805Y-100305195D02*
X133907610Y-99314000D01*
X142050000Y-96401000D02*
X141915000Y-96266000D01*
X140208000Y-96266000D02*
X138565054Y-97908946D01*
X141915000Y-96266000D02*
X140208000Y-96266000D01*
%TO.N,/out-*%
X139954000Y-97536000D02*
X141915000Y-97536000D01*
X130302000Y-97409000D02*
X130048000Y-97663000D01*
X130048000Y-97663000D02*
X130048000Y-99314000D01*
X141915000Y-97536000D02*
X142050000Y-97401000D01*
X130302000Y-96774000D02*
X130302000Y-97409000D01*
%TO.N,Net-(USB1-CC2)*%
X136817000Y-88110000D02*
X135664000Y-88110000D01*
X135664000Y-88110000D02*
X135636000Y-88138000D01*
%TO.N,Net-(USB1-CC1)*%
X135638000Y-84836000D02*
X135912000Y-85110000D01*
X135912000Y-85110000D02*
X136817000Y-85110000D01*
%TO.N,/sda*%
X136358000Y-91874498D02*
X136050502Y-91567000D01*
X136408000Y-93738000D02*
X135888000Y-93218000D01*
X136408000Y-93970000D02*
X136408000Y-93738000D01*
X138050000Y-96901000D02*
X137350000Y-96901000D01*
X136358000Y-92748000D02*
X136358000Y-91874498D01*
X138557000Y-96394000D02*
X138557000Y-94742000D01*
X136144000Y-94234000D02*
X136408000Y-93970000D01*
X138050000Y-96901000D02*
X138557000Y-96394000D01*
X136050502Y-91567000D02*
X134493000Y-91567000D01*
X135888000Y-93218000D02*
X136358000Y-92748000D01*
%TO.N,/scl*%
X136009000Y-97401000D02*
X137350000Y-97401000D01*
X135220144Y-96094388D02*
X135220144Y-96612144D01*
X135888000Y-92202000D02*
X134239000Y-92202000D01*
X135220144Y-96612144D02*
X136009000Y-97401000D01*
X133858000Y-92583000D02*
X133858000Y-93030000D01*
X133576000Y-93312000D02*
X133858000Y-93030000D01*
X133576000Y-94841000D02*
X133576000Y-93312000D01*
X131130000Y-93030000D02*
X133858000Y-93030000D01*
X130429000Y-90932000D02*
X130429000Y-92329000D01*
X133985000Y-95250000D02*
X133576000Y-94841000D01*
X130429000Y-92329000D02*
X131130000Y-93030000D01*
X134239000Y-92202000D02*
X133858000Y-92583000D01*
%TO.N,/boot*%
X128870000Y-86071000D02*
X129032000Y-86233000D01*
X129331000Y-83566000D02*
X128870000Y-84027000D01*
X130240000Y-86233000D02*
X132200000Y-88193000D01*
X129032000Y-86233000D02*
X130240000Y-86233000D01*
X130556000Y-83566000D02*
X129331000Y-83566000D01*
X128870000Y-84027000D02*
X128870000Y-86071000D01*
%TO.N,/mic_data*%
X132334000Y-95123000D02*
X131826000Y-95631000D01*
X131826000Y-95631000D02*
X131826000Y-95910000D01*
%TO.N,/usb_p*%
X137417000Y-87110000D02*
X136817000Y-87110000D01*
X137567000Y-86960000D02*
X137417000Y-87110000D01*
X137417000Y-86110000D02*
X137567000Y-86260000D01*
X138926000Y-87110000D02*
X136817000Y-87110000D01*
X136817000Y-86110000D02*
X137417000Y-86110000D01*
X139446000Y-87630000D02*
X138926000Y-87110000D01*
X138222178Y-91901822D02*
X137795000Y-92329000D01*
X139197705Y-91901822D02*
X138222178Y-91901822D01*
X137567000Y-86260000D02*
X137567000Y-86960000D01*
%TO.N,/usb_n*%
X138442000Y-85610000D02*
X139700000Y-86868000D01*
X136217000Y-85610000D02*
X138442000Y-85610000D01*
X135763000Y-86156000D02*
X135763000Y-86064000D01*
X136217000Y-86610000D02*
X135763000Y-86156000D01*
X136817000Y-86610000D02*
X136217000Y-86610000D01*
X135763000Y-86064000D02*
X136217000Y-85610000D01*
%TO.N,/mic_clk*%
X131004000Y-95087498D02*
X131004000Y-94234000D01*
X131064000Y-95147498D02*
X131004000Y-95087498D01*
%TO.N,+5V*%
X134338000Y-97054893D02*
X134338000Y-97028000D01*
X137173000Y-83960000D02*
X137668000Y-84455000D01*
X135709109Y-98426002D02*
X134338000Y-97054893D01*
X139781250Y-88700000D02*
X139627000Y-88700000D01*
X136817000Y-83960000D02*
X137173000Y-83960000D01*
X140335000Y-86614000D02*
X140335000Y-88146250D01*
X139781250Y-88700000D02*
X139781250Y-90469750D01*
X137668000Y-84455000D02*
X138176000Y-84455000D01*
X139427000Y-88500000D02*
X137004500Y-88500000D01*
X137079056Y-94869000D02*
X135481000Y-94869000D01*
X140335000Y-88146250D02*
X139781250Y-88700000D01*
X139797705Y-92150351D02*
X137079056Y-94869000D01*
X137004500Y-88500000D02*
X136744500Y-88760000D01*
X139797705Y-90486205D02*
X139797705Y-92150351D01*
X136017000Y-98426002D02*
X135709109Y-98426002D01*
X139627000Y-88700000D02*
X139427000Y-88500000D01*
X135481000Y-94869000D02*
X134338000Y-96012000D01*
X138176000Y-84455000D02*
X140335000Y-86614000D01*
X136817000Y-88760000D02*
X136877000Y-88700000D01*
X139781250Y-90469750D02*
X139797705Y-90486205D01*
X134338000Y-97028000D02*
X134338000Y-96012000D01*
%TD*%
M02*
