%TF.GenerationSoftware,KiCad,Pcbnew,8.0.4*%
%TF.CreationDate,2024-12-29T16:28:47-05:00*%
%TF.ProjectId,SurroundSensePCB,53757272-6f75-46e6-9453-656e73655043,rev?*%
%TF.SameCoordinates,Original*%
%TF.FileFunction,Copper,L3,Inr*%
%TF.FilePolarity,Positive*%
%FSLAX46Y46*%
G04 Gerber Fmt 4.6, Leading zero omitted, Abs format (unit mm)*
G04 Created by KiCad (PCBNEW 8.0.4) date 2024-12-29 16:28:47*
%MOMM*%
%LPD*%
G01*
G04 APERTURE LIST*
%TA.AperFunction,ComponentPad*%
%ADD10O,1.800000X1.200000*%
%TD*%
%TA.AperFunction,ComponentPad*%
%ADD11O,2.000000X1.100000*%
%TD*%
%TA.AperFunction,ViaPad*%
%ADD12C,0.600000*%
%TD*%
G04 APERTURE END LIST*
D10*
%TO.N,GND*%
%TO.C,USB1*%
X141494500Y-82035000D03*
D11*
X137294500Y-82035000D03*
D10*
X141494500Y-90685000D03*
D11*
X137294500Y-90685000D03*
%TD*%
D12*
%TO.N,GND*%
X131572000Y-100584000D03*
X137668000Y-80518000D03*
X140462000Y-96901000D03*
X130302000Y-80264000D03*
X134620000Y-94488000D03*
X129032000Y-96266000D03*
X141224000Y-100203000D03*
X135890000Y-83058000D03*
X143256000Y-94234000D03*
X135128000Y-99060000D03*
X133350000Y-84582000D03*
X135128000Y-89154000D03*
X139192000Y-80772000D03*
X133858000Y-82550000D03*
X130302000Y-84455000D03*
X134620000Y-80264000D03*
X132080000Y-81788000D03*
X134874000Y-83566000D03*
X133350000Y-87122000D03*
%TO.N,+3.3V*%
X131445000Y-80645000D03*
X131318000Y-89662000D03*
X138938000Y-80010000D03*
X135636000Y-90932000D03*
X132842000Y-80264000D03*
X132969000Y-94615000D03*
X138938000Y-100584000D03*
X139700000Y-94996000D03*
%TO.N,/en*%
X142240000Y-80264000D03*
%TO.N,/out+*%
X138565054Y-97908946D03*
X134898805Y-100305195D03*
%TO.N,/out-*%
X139954000Y-97536000D03*
X130302000Y-96774000D03*
%TO.N,/sda*%
X134493000Y-91567000D03*
X138557000Y-94742000D03*
X136144000Y-94234000D03*
%TO.N,/scl*%
X135220144Y-96094388D03*
X133985000Y-95250000D03*
X130429000Y-90932000D03*
%TO.N,/boot*%
X130556000Y-83566000D03*
%TO.N,/mic_data*%
X132334000Y-95123000D03*
%TO.N,/usb_p*%
X139446000Y-87630000D03*
X137795000Y-92329000D03*
X139197705Y-91901822D03*
%TO.N,/usb_n*%
X139700000Y-86868000D03*
%TO.N,/mic_clk*%
X131064000Y-95147498D03*
%TO.N,+5V*%
X136017000Y-98426002D03*
%TD*%
%TA.AperFunction,Conductor*%
%TO.N,GND*%
G36*
X143860539Y-78759685D02*
G01*
X143906294Y-78812489D01*
X143917500Y-78864000D01*
X143917500Y-100070586D01*
X143917028Y-100081394D01*
X143904536Y-100224167D01*
X143900783Y-100245452D01*
X143865096Y-100378639D01*
X143857703Y-100398951D01*
X143799430Y-100523918D01*
X143788623Y-100542636D01*
X143709536Y-100655585D01*
X143695642Y-100672143D01*
X143598143Y-100769642D01*
X143581585Y-100783536D01*
X143468636Y-100862623D01*
X143449918Y-100873430D01*
X143324951Y-100931703D01*
X143304639Y-100939096D01*
X143171452Y-100974783D01*
X143150167Y-100978536D01*
X143007395Y-100991028D01*
X142996587Y-100991500D01*
X139818264Y-100991500D01*
X139751225Y-100971815D01*
X139705470Y-100919011D01*
X139695526Y-100849853D01*
X139701222Y-100826546D01*
X139716271Y-100783536D01*
X139723368Y-100763255D01*
X139734498Y-100664472D01*
X139743565Y-100584003D01*
X139743565Y-100583996D01*
X139723369Y-100404750D01*
X139723368Y-100404745D01*
X139688534Y-100305195D01*
X139663789Y-100234478D01*
X139567816Y-100081738D01*
X139440262Y-99954184D01*
X139287523Y-99858211D01*
X139117254Y-99798631D01*
X139117249Y-99798630D01*
X138938004Y-99778435D01*
X138937996Y-99778435D01*
X138758750Y-99798630D01*
X138758745Y-99798631D01*
X138588476Y-99858211D01*
X138435737Y-99954184D01*
X138308184Y-100081737D01*
X138212211Y-100234476D01*
X138152631Y-100404745D01*
X138152630Y-100404750D01*
X138132435Y-100583996D01*
X138132435Y-100584003D01*
X138152630Y-100763249D01*
X138152632Y-100763257D01*
X138174778Y-100826546D01*
X138178339Y-100896324D01*
X138143610Y-100956952D01*
X138081617Y-100989179D01*
X138057736Y-100991500D01*
X135637340Y-100991500D01*
X135570301Y-100971815D01*
X135524546Y-100919011D01*
X135514602Y-100849853D01*
X135532346Y-100801528D01*
X135624594Y-100654717D01*
X135684173Y-100484450D01*
X135693154Y-100404745D01*
X135704370Y-100305198D01*
X135704370Y-100305191D01*
X135684174Y-100125945D01*
X135684173Y-100125940D01*
X135624593Y-99955671D01*
X135585387Y-99893275D01*
X135528621Y-99802933D01*
X135401067Y-99675379D01*
X135248328Y-99579406D01*
X135078059Y-99519826D01*
X135078054Y-99519825D01*
X134898809Y-99499630D01*
X134898801Y-99499630D01*
X134719555Y-99519825D01*
X134719550Y-99519826D01*
X134549281Y-99579406D01*
X134396542Y-99675379D01*
X134268989Y-99802932D01*
X134173016Y-99955671D01*
X134113436Y-100125940D01*
X134113435Y-100125945D01*
X134093240Y-100305191D01*
X134093240Y-100305198D01*
X134113435Y-100484444D01*
X134113436Y-100484449D01*
X134148271Y-100584000D01*
X134173016Y-100654717D01*
X134253958Y-100783536D01*
X134265264Y-100801528D01*
X134284264Y-100868764D01*
X134263896Y-100935600D01*
X134210629Y-100980814D01*
X134160270Y-100991500D01*
X129291413Y-100991500D01*
X129280605Y-100991028D01*
X129137832Y-100978536D01*
X129116547Y-100974783D01*
X128983360Y-100939096D01*
X128963048Y-100931703D01*
X128838081Y-100873430D01*
X128819363Y-100862623D01*
X128706414Y-100783536D01*
X128689856Y-100769642D01*
X128592358Y-100672144D01*
X128578463Y-100655585D01*
X128577855Y-100654717D01*
X128568207Y-100640938D01*
X128546424Y-100609827D01*
X128524097Y-100543620D01*
X128524000Y-100538705D01*
X128524000Y-98425998D01*
X135211435Y-98425998D01*
X135211435Y-98426005D01*
X135231630Y-98605251D01*
X135231631Y-98605256D01*
X135291211Y-98775525D01*
X135387184Y-98928264D01*
X135514738Y-99055818D01*
X135667478Y-99151791D01*
X135837745Y-99211370D01*
X135837750Y-99211371D01*
X136016996Y-99231567D01*
X136017000Y-99231567D01*
X136017004Y-99231567D01*
X136196249Y-99211371D01*
X136196252Y-99211370D01*
X136196255Y-99211370D01*
X136366522Y-99151791D01*
X136519262Y-99055818D01*
X136646816Y-98928264D01*
X136742789Y-98775524D01*
X136802368Y-98605257D01*
X136809860Y-98538762D01*
X136822565Y-98426005D01*
X136822565Y-98425998D01*
X136802369Y-98246752D01*
X136802368Y-98246747D01*
X136774049Y-98165815D01*
X136742789Y-98076480D01*
X136736769Y-98066900D01*
X136646815Y-97923739D01*
X136632018Y-97908942D01*
X137759489Y-97908942D01*
X137759489Y-97908949D01*
X137779684Y-98088195D01*
X137779685Y-98088200D01*
X137839265Y-98258469D01*
X137878788Y-98321369D01*
X137935238Y-98411208D01*
X138062792Y-98538762D01*
X138153134Y-98595528D01*
X138168608Y-98605251D01*
X138215532Y-98634735D01*
X138385799Y-98694314D01*
X138385804Y-98694315D01*
X138565050Y-98714511D01*
X138565054Y-98714511D01*
X138565058Y-98714511D01*
X138744303Y-98694315D01*
X138744306Y-98694314D01*
X138744309Y-98694314D01*
X138914576Y-98634735D01*
X139067316Y-98538762D01*
X139194870Y-98411208D01*
X139290843Y-98258468D01*
X139295062Y-98246408D01*
X139335780Y-98189633D01*
X139400732Y-98163883D01*
X139469294Y-98177335D01*
X139478077Y-98182366D01*
X139599192Y-98258468D01*
X139604478Y-98261789D01*
X139774745Y-98321368D01*
X139774750Y-98321369D01*
X139953996Y-98341565D01*
X139954000Y-98341565D01*
X139954004Y-98341565D01*
X140133249Y-98321369D01*
X140133252Y-98321368D01*
X140133255Y-98321368D01*
X140303522Y-98261789D01*
X140456262Y-98165816D01*
X140583816Y-98038262D01*
X140679789Y-97885522D01*
X140739368Y-97715255D01*
X140747776Y-97640632D01*
X140759565Y-97536003D01*
X140759565Y-97535996D01*
X140739369Y-97356750D01*
X140739368Y-97356745D01*
X140679788Y-97186476D01*
X140583815Y-97033737D01*
X140456262Y-96906184D01*
X140303523Y-96810211D01*
X140133254Y-96750631D01*
X140133249Y-96750630D01*
X139954004Y-96730435D01*
X139953996Y-96730435D01*
X139774750Y-96750630D01*
X139774745Y-96750631D01*
X139604476Y-96810211D01*
X139451737Y-96906184D01*
X139324184Y-97033737D01*
X139228209Y-97186479D01*
X139223989Y-97198541D01*
X139183266Y-97255317D01*
X139118313Y-97281063D01*
X139049752Y-97267606D01*
X139040976Y-97262579D01*
X138914577Y-97183157D01*
X138744308Y-97123577D01*
X138744303Y-97123576D01*
X138565058Y-97103381D01*
X138565050Y-97103381D01*
X138385804Y-97123576D01*
X138385799Y-97123577D01*
X138215530Y-97183157D01*
X138062791Y-97279130D01*
X137935238Y-97406683D01*
X137839265Y-97559422D01*
X137779685Y-97729691D01*
X137779684Y-97729696D01*
X137759489Y-97908942D01*
X136632018Y-97908942D01*
X136519262Y-97796186D01*
X136366523Y-97700213D01*
X136196254Y-97640633D01*
X136196249Y-97640632D01*
X136017004Y-97620437D01*
X136016996Y-97620437D01*
X135837750Y-97640632D01*
X135837745Y-97640633D01*
X135667476Y-97700213D01*
X135514737Y-97796186D01*
X135387184Y-97923739D01*
X135291211Y-98076478D01*
X135231631Y-98246747D01*
X135231630Y-98246752D01*
X135211435Y-98425998D01*
X128524000Y-98425998D01*
X128524000Y-95051413D01*
X129399027Y-95051413D01*
X129399027Y-95092586D01*
X129418055Y-95188246D01*
X129418058Y-95188257D01*
X129433809Y-95226281D01*
X129433813Y-95226289D01*
X129488002Y-95307388D01*
X129488005Y-95307392D01*
X129517107Y-95336494D01*
X129517111Y-95336497D01*
X129598210Y-95390686D01*
X129598214Y-95390688D01*
X129598217Y-95390690D01*
X129636247Y-95406443D01*
X129731913Y-95425472D01*
X129731917Y-95425473D01*
X129731918Y-95425473D01*
X129773083Y-95425473D01*
X129773084Y-95425472D01*
X129868753Y-95406443D01*
X129906783Y-95390690D01*
X129987889Y-95336497D01*
X130016997Y-95307389D01*
X130050650Y-95257022D01*
X130104261Y-95212219D01*
X130173586Y-95203510D01*
X130236614Y-95233665D01*
X130273333Y-95293107D01*
X130276972Y-95312027D01*
X130278631Y-95326750D01*
X130278631Y-95326752D01*
X130338211Y-95497021D01*
X130434184Y-95649760D01*
X130559530Y-95775106D01*
X130593015Y-95836429D01*
X130588031Y-95906121D01*
X130546159Y-95962054D01*
X130480695Y-95986471D01*
X130457966Y-95986007D01*
X130302004Y-95968435D01*
X130301996Y-95968435D01*
X130122750Y-95988630D01*
X130122745Y-95988631D01*
X129952476Y-96048211D01*
X129799737Y-96144184D01*
X129672184Y-96271737D01*
X129576211Y-96424476D01*
X129516631Y-96594745D01*
X129516630Y-96594750D01*
X129496435Y-96773996D01*
X129496435Y-96774003D01*
X129516630Y-96953249D01*
X129516631Y-96953254D01*
X129576211Y-97123523D01*
X129659023Y-97255317D01*
X129672184Y-97276262D01*
X129799738Y-97403816D01*
X129952478Y-97499789D01*
X130055952Y-97535996D01*
X130122745Y-97559368D01*
X130122750Y-97559369D01*
X130301996Y-97579565D01*
X130302000Y-97579565D01*
X130302004Y-97579565D01*
X130481249Y-97559369D01*
X130481252Y-97559368D01*
X130481255Y-97559368D01*
X130651522Y-97499789D01*
X130804262Y-97403816D01*
X130931816Y-97276262D01*
X131027789Y-97123522D01*
X131087368Y-96953255D01*
X131095649Y-96879757D01*
X131107565Y-96774003D01*
X131107565Y-96773996D01*
X131087369Y-96594750D01*
X131087368Y-96594745D01*
X131034589Y-96443911D01*
X131027789Y-96424478D01*
X130931816Y-96271738D01*
X130806469Y-96146391D01*
X130772984Y-96085068D01*
X130777968Y-96015376D01*
X130819840Y-95959443D01*
X130885304Y-95935026D01*
X130908034Y-95935490D01*
X131063997Y-95953063D01*
X131064000Y-95953063D01*
X131064004Y-95953063D01*
X131243249Y-95932867D01*
X131243252Y-95932866D01*
X131243255Y-95932866D01*
X131413522Y-95873287D01*
X131566262Y-95777314D01*
X131623568Y-95720008D01*
X131684891Y-95686523D01*
X131754583Y-95691507D01*
X131798930Y-95720008D01*
X131831738Y-95752816D01*
X131984478Y-95848789D01*
X132073148Y-95879816D01*
X132154745Y-95908368D01*
X132154750Y-95908369D01*
X132333996Y-95928565D01*
X132334000Y-95928565D01*
X132334004Y-95928565D01*
X132513249Y-95908369D01*
X132513252Y-95908368D01*
X132513255Y-95908368D01*
X132683522Y-95848789D01*
X132836262Y-95752816D01*
X132963816Y-95625262D01*
X133022344Y-95532114D01*
X133074678Y-95485825D01*
X133143731Y-95475177D01*
X133207580Y-95503552D01*
X133244379Y-95557135D01*
X133259209Y-95599520D01*
X133350537Y-95744866D01*
X133355184Y-95752262D01*
X133482738Y-95879816D01*
X133524602Y-95906121D01*
X133609463Y-95959443D01*
X133635478Y-95975789D01*
X133718081Y-96004693D01*
X133805745Y-96035368D01*
X133805750Y-96035369D01*
X133984996Y-96055565D01*
X133985000Y-96055565D01*
X133985004Y-96055565D01*
X134164249Y-96035369D01*
X134164251Y-96035368D01*
X134164255Y-96035368D01*
X134164258Y-96035366D01*
X134164262Y-96035366D01*
X134251920Y-96004693D01*
X134321698Y-96001130D01*
X134382326Y-96035859D01*
X134414554Y-96097852D01*
X134416095Y-96107850D01*
X134434774Y-96273638D01*
X134434775Y-96273642D01*
X134494355Y-96443911D01*
X134589131Y-96594745D01*
X134590328Y-96596650D01*
X134717882Y-96724204D01*
X134870622Y-96820177D01*
X135040889Y-96879756D01*
X135040894Y-96879757D01*
X135220140Y-96899953D01*
X135220144Y-96899953D01*
X135220148Y-96899953D01*
X135399393Y-96879757D01*
X135399396Y-96879756D01*
X135399399Y-96879756D01*
X135569666Y-96820177D01*
X135722406Y-96724204D01*
X135849960Y-96596650D01*
X135945933Y-96443910D01*
X136005512Y-96273643D01*
X136019850Y-96146391D01*
X136025709Y-96094391D01*
X136025709Y-96094384D01*
X136005513Y-95915138D01*
X136005512Y-95915133D01*
X135958706Y-95781369D01*
X135945933Y-95744866D01*
X135849960Y-95592126D01*
X135722406Y-95464572D01*
X135698274Y-95449409D01*
X135569667Y-95368599D01*
X135399398Y-95309019D01*
X135399393Y-95309018D01*
X135220148Y-95288823D01*
X135220140Y-95288823D01*
X135040894Y-95309018D01*
X135040886Y-95309020D01*
X134953222Y-95339695D01*
X134883443Y-95343256D01*
X134822816Y-95308527D01*
X134790589Y-95246533D01*
X134789048Y-95236536D01*
X134770369Y-95070750D01*
X134770368Y-95070745D01*
X134744215Y-94996003D01*
X134710789Y-94900478D01*
X134614816Y-94747738D01*
X134487262Y-94620184D01*
X134429636Y-94583975D01*
X134334523Y-94524211D01*
X134164254Y-94464631D01*
X134164249Y-94464630D01*
X133985004Y-94444435D01*
X133984996Y-94444435D01*
X133864306Y-94458033D01*
X133795484Y-94445978D01*
X133744105Y-94398629D01*
X133733381Y-94375767D01*
X133694789Y-94265478D01*
X133675010Y-94234000D01*
X133675007Y-94233996D01*
X135338435Y-94233996D01*
X135338435Y-94234003D01*
X135358630Y-94413249D01*
X135358631Y-94413254D01*
X135418211Y-94583523D01*
X135457769Y-94646478D01*
X135514184Y-94736262D01*
X135641738Y-94863816D01*
X135700082Y-94900476D01*
X135788054Y-94955753D01*
X135794478Y-94959789D01*
X135837320Y-94974780D01*
X135964745Y-95019368D01*
X135964750Y-95019369D01*
X136143996Y-95039565D01*
X136144000Y-95039565D01*
X136144004Y-95039565D01*
X136323249Y-95019369D01*
X136323252Y-95019368D01*
X136323255Y-95019368D01*
X136493522Y-94959789D01*
X136646262Y-94863816D01*
X136768082Y-94741996D01*
X137751435Y-94741996D01*
X137751435Y-94742003D01*
X137771630Y-94921249D01*
X137771631Y-94921254D01*
X137831211Y-95091523D01*
X137901578Y-95203510D01*
X137927184Y-95244262D01*
X138054738Y-95371816D01*
X138207478Y-95467789D01*
X138294565Y-95498262D01*
X138377745Y-95527368D01*
X138377750Y-95527369D01*
X138556996Y-95547565D01*
X138557000Y-95547565D01*
X138557004Y-95547565D01*
X138736249Y-95527369D01*
X138736252Y-95527368D01*
X138736255Y-95527368D01*
X138906522Y-95467789D01*
X138906525Y-95467786D01*
X138912788Y-95464771D01*
X138913462Y-95466171D01*
X138972757Y-95449409D01*
X139039594Y-95469770D01*
X139068449Y-95496087D01*
X139070182Y-95498260D01*
X139070184Y-95498262D01*
X139197738Y-95625816D01*
X139201768Y-95628348D01*
X139347643Y-95720008D01*
X139350478Y-95721789D01*
X139509159Y-95777314D01*
X139520745Y-95781368D01*
X139520750Y-95781369D01*
X139699996Y-95801565D01*
X139700000Y-95801565D01*
X139700004Y-95801565D01*
X139879249Y-95781369D01*
X139879252Y-95781368D01*
X139879255Y-95781368D01*
X140049522Y-95721789D01*
X140202262Y-95625816D01*
X140329816Y-95498262D01*
X140425789Y-95345522D01*
X140485368Y-95175255D01*
X140485369Y-95175249D01*
X140505565Y-94996003D01*
X140505565Y-94995996D01*
X140485369Y-94816750D01*
X140485368Y-94816745D01*
X140459215Y-94742003D01*
X140425789Y-94646478D01*
X140409615Y-94620738D01*
X140329815Y-94493737D01*
X140202262Y-94366184D01*
X140049523Y-94270211D01*
X139879254Y-94210631D01*
X139879249Y-94210630D01*
X139700004Y-94190435D01*
X139699996Y-94190435D01*
X139520750Y-94210630D01*
X139520737Y-94210633D01*
X139350478Y-94270210D01*
X139344206Y-94273231D01*
X139343533Y-94271833D01*
X139284220Y-94288589D01*
X139217386Y-94268217D01*
X139188548Y-94241911D01*
X139186819Y-94239743D01*
X139186816Y-94239738D01*
X139059262Y-94112184D01*
X138906523Y-94016211D01*
X138736254Y-93956631D01*
X138736249Y-93956630D01*
X138557004Y-93936435D01*
X138556996Y-93936435D01*
X138377750Y-93956630D01*
X138377745Y-93956631D01*
X138207476Y-94016211D01*
X138054737Y-94112184D01*
X137927184Y-94239737D01*
X137831211Y-94392476D01*
X137771631Y-94562745D01*
X137771630Y-94562750D01*
X137751435Y-94741996D01*
X136768082Y-94741996D01*
X136773816Y-94736262D01*
X136869789Y-94583522D01*
X136929368Y-94413255D01*
X136931709Y-94392478D01*
X136949565Y-94234003D01*
X136949565Y-94233996D01*
X136929369Y-94054750D01*
X136929368Y-94054745D01*
X136915884Y-94016211D01*
X136869789Y-93884478D01*
X136773816Y-93731738D01*
X136646262Y-93604184D01*
X136493523Y-93508211D01*
X136323254Y-93448631D01*
X136323249Y-93448630D01*
X136144004Y-93428435D01*
X136143996Y-93428435D01*
X135964750Y-93448630D01*
X135964745Y-93448631D01*
X135794476Y-93508211D01*
X135641737Y-93604184D01*
X135514184Y-93731737D01*
X135418211Y-93884476D01*
X135358631Y-94054745D01*
X135358630Y-94054750D01*
X135338435Y-94233996D01*
X133675007Y-94233996D01*
X133598816Y-94112738D01*
X133471262Y-93985184D01*
X133425822Y-93956632D01*
X133318523Y-93889211D01*
X133148254Y-93829631D01*
X133148249Y-93829630D01*
X132969004Y-93809435D01*
X132968996Y-93809435D01*
X132789750Y-93829630D01*
X132789745Y-93829631D01*
X132619476Y-93889211D01*
X132466737Y-93985184D01*
X132339184Y-94112737D01*
X132243208Y-94265483D01*
X132241002Y-94270064D01*
X132194176Y-94321920D01*
X132156884Y-94337144D01*
X132154747Y-94337631D01*
X131984478Y-94397210D01*
X131831737Y-94493184D01*
X131774432Y-94550490D01*
X131713109Y-94583975D01*
X131643417Y-94578991D01*
X131599070Y-94550490D01*
X131566262Y-94517682D01*
X131413523Y-94421709D01*
X131243254Y-94362129D01*
X131243249Y-94362128D01*
X131064004Y-94341933D01*
X131063996Y-94341933D01*
X130884750Y-94362128D01*
X130884745Y-94362129D01*
X130714476Y-94421709D01*
X130561737Y-94517682D01*
X130434184Y-94645235D01*
X130338209Y-94797978D01*
X130300511Y-94905713D01*
X130259790Y-94962489D01*
X130194837Y-94988236D01*
X130126275Y-94974780D01*
X130075873Y-94926392D01*
X130074207Y-94923001D01*
X130074057Y-94923082D01*
X130071186Y-94917710D01*
X130016997Y-94836611D01*
X130016994Y-94836607D01*
X129987892Y-94807505D01*
X129987888Y-94807502D01*
X129906789Y-94753313D01*
X129906781Y-94753309D01*
X129868757Y-94737558D01*
X129868746Y-94737555D01*
X129773086Y-94718527D01*
X129773082Y-94718527D01*
X129731918Y-94718527D01*
X129731913Y-94718527D01*
X129636253Y-94737555D01*
X129636242Y-94737558D01*
X129598218Y-94753309D01*
X129598210Y-94753313D01*
X129517111Y-94807502D01*
X129517107Y-94807505D01*
X129488005Y-94836607D01*
X129488002Y-94836611D01*
X129433813Y-94917710D01*
X129433809Y-94917718D01*
X129418058Y-94955742D01*
X129418055Y-94955753D01*
X129399027Y-95051413D01*
X128524000Y-95051413D01*
X128524000Y-90931996D01*
X129623435Y-90931996D01*
X129623435Y-90932003D01*
X129643630Y-91111249D01*
X129643631Y-91111254D01*
X129703211Y-91281523D01*
X129777379Y-91399560D01*
X129799184Y-91434262D01*
X129926738Y-91561816D01*
X130079478Y-91657789D01*
X130216871Y-91705865D01*
X130249745Y-91717368D01*
X130249750Y-91717369D01*
X130428996Y-91737565D01*
X130429000Y-91737565D01*
X130429004Y-91737565D01*
X130608249Y-91717369D01*
X130608252Y-91717368D01*
X130608255Y-91717368D01*
X130778522Y-91657789D01*
X130923018Y-91566996D01*
X133687435Y-91566996D01*
X133687435Y-91567003D01*
X133707630Y-91746249D01*
X133707631Y-91746254D01*
X133767211Y-91916523D01*
X133806769Y-91979478D01*
X133863184Y-92069262D01*
X133990738Y-92196816D01*
X134143478Y-92292789D01*
X134246952Y-92328996D01*
X134313745Y-92352368D01*
X134313750Y-92352369D01*
X134492996Y-92372565D01*
X134493000Y-92372565D01*
X134493004Y-92372565D01*
X134672249Y-92352369D01*
X134672252Y-92352368D01*
X134672255Y-92352368D01*
X134842522Y-92292789D01*
X134995262Y-92196816D01*
X135122816Y-92069262D01*
X135218789Y-91916522D01*
X135265877Y-91781951D01*
X135306599Y-91725176D01*
X135371551Y-91699428D01*
X135423869Y-91705864D01*
X135456745Y-91717368D01*
X135456752Y-91717368D01*
X135456753Y-91717369D01*
X135635996Y-91737565D01*
X135636000Y-91737565D01*
X135636004Y-91737565D01*
X135815249Y-91717369D01*
X135815252Y-91717368D01*
X135815255Y-91717368D01*
X135985522Y-91657789D01*
X136136460Y-91562947D01*
X136203696Y-91543948D01*
X136270532Y-91564316D01*
X136271323Y-91564840D01*
X136347138Y-91615498D01*
X136538225Y-91694649D01*
X136538233Y-91694651D01*
X136741079Y-91734999D01*
X136741083Y-91735000D01*
X136998465Y-91735000D01*
X137065504Y-91754685D01*
X137111259Y-91807489D01*
X137121203Y-91876647D01*
X137103459Y-91924972D01*
X137069211Y-91979476D01*
X137009631Y-92149745D01*
X137009630Y-92149750D01*
X136989435Y-92328996D01*
X136989435Y-92329003D01*
X137009630Y-92508249D01*
X137009631Y-92508254D01*
X137069211Y-92678523D01*
X137074657Y-92687190D01*
X137165184Y-92831262D01*
X137292738Y-92958816D01*
X137445478Y-93054789D01*
X137615745Y-93114368D01*
X137615750Y-93114369D01*
X137794996Y-93134565D01*
X137795000Y-93134565D01*
X137795004Y-93134565D01*
X137974249Y-93114369D01*
X137974252Y-93114368D01*
X137974255Y-93114368D01*
X138144522Y-93054789D01*
X138297262Y-92958816D01*
X138424816Y-92831262D01*
X138520789Y-92678522D01*
X138543046Y-92614914D01*
X138583765Y-92558140D01*
X138648718Y-92532391D01*
X138717280Y-92545846D01*
X138726053Y-92550871D01*
X138848183Y-92627611D01*
X138993681Y-92678523D01*
X139018450Y-92687190D01*
X139018455Y-92687191D01*
X139197701Y-92707387D01*
X139197705Y-92707387D01*
X139197709Y-92707387D01*
X139376954Y-92687191D01*
X139376957Y-92687190D01*
X139376960Y-92687190D01*
X139547227Y-92627611D01*
X139699967Y-92531638D01*
X139827521Y-92404084D01*
X139923494Y-92251344D01*
X139983073Y-92081077D01*
X139983074Y-92081071D01*
X140003270Y-91901825D01*
X140003270Y-91901818D01*
X139983074Y-91722572D01*
X139983073Y-91722567D01*
X139945608Y-91615498D01*
X139923494Y-91552300D01*
X139827521Y-91399560D01*
X139699967Y-91272006D01*
X139683285Y-91261524D01*
X139547228Y-91176033D01*
X139376959Y-91116453D01*
X139376954Y-91116452D01*
X139197709Y-91096257D01*
X139197701Y-91096257D01*
X139018455Y-91116452D01*
X139018447Y-91116454D01*
X138910270Y-91154307D01*
X138840491Y-91157868D01*
X138779864Y-91123139D01*
X138747637Y-91061146D01*
X138753502Y-90997444D01*
X138752381Y-90997104D01*
X138754035Y-90991649D01*
X138754043Y-90991570D01*
X138754109Y-90991405D01*
X138754149Y-90991274D01*
X138765343Y-90935000D01*
X137911488Y-90935000D01*
X137928705Y-90925060D01*
X137984560Y-90869205D01*
X138024056Y-90800796D01*
X138044500Y-90724496D01*
X138044500Y-90645504D01*
X138024056Y-90569204D01*
X137984560Y-90500795D01*
X137928705Y-90444940D01*
X137911488Y-90435000D01*
X138765343Y-90435000D01*
X138765343Y-90434999D01*
X140120384Y-90434999D01*
X140120385Y-90435000D01*
X141027512Y-90435000D01*
X141010295Y-90444940D01*
X140954440Y-90500795D01*
X140914944Y-90569204D01*
X140894500Y-90645504D01*
X140894500Y-90724496D01*
X140914944Y-90800796D01*
X140954440Y-90869205D01*
X141010295Y-90925060D01*
X141027512Y-90935000D01*
X140120385Y-90935000D01*
X140121585Y-90942584D01*
X140175091Y-91107255D01*
X140253695Y-91261524D01*
X140355467Y-91401602D01*
X140477897Y-91524032D01*
X140617975Y-91625804D01*
X140772242Y-91704408D01*
X140936915Y-91757914D01*
X141107929Y-91785000D01*
X141244500Y-91785000D01*
X141244500Y-90985000D01*
X141744500Y-90985000D01*
X141744500Y-91785000D01*
X141881071Y-91785000D01*
X142052084Y-91757914D01*
X142216757Y-91704408D01*
X142371024Y-91625804D01*
X142511102Y-91524032D01*
X142633532Y-91401602D01*
X142735304Y-91261524D01*
X142813908Y-91107255D01*
X142867414Y-90942584D01*
X142868615Y-90935000D01*
X141961488Y-90935000D01*
X141978705Y-90925060D01*
X142034560Y-90869205D01*
X142074056Y-90800796D01*
X142094500Y-90724496D01*
X142094500Y-90645504D01*
X142074056Y-90569204D01*
X142034560Y-90500795D01*
X141978705Y-90444940D01*
X141961488Y-90435000D01*
X142868615Y-90435000D01*
X142868615Y-90434999D01*
X142867414Y-90427415D01*
X142813908Y-90262744D01*
X142735304Y-90108475D01*
X142633532Y-89968397D01*
X142511102Y-89845967D01*
X142371024Y-89744195D01*
X142216757Y-89665591D01*
X142052084Y-89612085D01*
X141881071Y-89585000D01*
X141744500Y-89585000D01*
X141744500Y-90385000D01*
X141244500Y-90385000D01*
X141244500Y-89585000D01*
X141107929Y-89585000D01*
X140936915Y-89612085D01*
X140772242Y-89665591D01*
X140617975Y-89744195D01*
X140477897Y-89845967D01*
X140355467Y-89968397D01*
X140253695Y-90108475D01*
X140175091Y-90262744D01*
X140121585Y-90427415D01*
X140120384Y-90434999D01*
X138765343Y-90434999D01*
X138754149Y-90378725D01*
X138754148Y-90378723D01*
X138674999Y-90187641D01*
X138674994Y-90187631D01*
X138560089Y-90015664D01*
X138560086Y-90015660D01*
X138413839Y-89869413D01*
X138413835Y-89869410D01*
X138241868Y-89754505D01*
X138241856Y-89754499D01*
X138205577Y-89739471D01*
X138151175Y-89695629D01*
X138129111Y-89629335D01*
X138146391Y-89561636D01*
X138165355Y-89537226D01*
X138172256Y-89530325D01*
X138191657Y-89503621D01*
X138241371Y-89406052D01*
X138251571Y-89374660D01*
X138261420Y-89312476D01*
X138268701Y-89266509D01*
X138268701Y-89233490D01*
X138251571Y-89125343D01*
X138251571Y-89125340D01*
X138241371Y-89093948D01*
X138241369Y-89093945D01*
X138241369Y-89093943D01*
X138191657Y-88996379D01*
X138172256Y-88969675D01*
X138172253Y-88969672D01*
X138172252Y-88969670D01*
X138094830Y-88892248D01*
X138094827Y-88892246D01*
X138094825Y-88892244D01*
X138068121Y-88872843D01*
X138068122Y-88872843D01*
X138068120Y-88872842D01*
X137970556Y-88823130D01*
X137954856Y-88818029D01*
X137939160Y-88812929D01*
X137939158Y-88812928D01*
X137939156Y-88812928D01*
X137831009Y-88795799D01*
X137831004Y-88795799D01*
X137797996Y-88795799D01*
X137797991Y-88795799D01*
X137689843Y-88812928D01*
X137658443Y-88823130D01*
X137560879Y-88872842D01*
X137534172Y-88892246D01*
X137456746Y-88969672D01*
X137437342Y-88996379D01*
X137387630Y-89093943D01*
X137377428Y-89125343D01*
X137360299Y-89233490D01*
X137360299Y-89266509D01*
X137377428Y-89374656D01*
X137387630Y-89406056D01*
X137437342Y-89503620D01*
X137437343Y-89503621D01*
X137456744Y-89530325D01*
X137456746Y-89530327D01*
X137456748Y-89530330D01*
X137508181Y-89581763D01*
X137541666Y-89643086D01*
X137544500Y-89669444D01*
X137544500Y-90385000D01*
X137044500Y-90385000D01*
X137044500Y-89635000D01*
X136741079Y-89635000D01*
X136538233Y-89675348D01*
X136538225Y-89675350D01*
X136347141Y-89754500D01*
X136347131Y-89754505D01*
X136175164Y-89869410D01*
X136175160Y-89869413D01*
X136028913Y-90015660D01*
X136028910Y-90015664D01*
X135970871Y-90102525D01*
X135917258Y-90147330D01*
X135847933Y-90156037D01*
X135826820Y-90150678D01*
X135815252Y-90146631D01*
X135636004Y-90126435D01*
X135635996Y-90126435D01*
X135456750Y-90146630D01*
X135456745Y-90146631D01*
X135286476Y-90206211D01*
X135133737Y-90302184D01*
X135006184Y-90429737D01*
X134910209Y-90582480D01*
X134863122Y-90717047D01*
X134822401Y-90773823D01*
X134757448Y-90799570D01*
X134705127Y-90793134D01*
X134672252Y-90781631D01*
X134493004Y-90761435D01*
X134492996Y-90761435D01*
X134313750Y-90781630D01*
X134313745Y-90781631D01*
X134143476Y-90841211D01*
X133990737Y-90937184D01*
X133863184Y-91064737D01*
X133767211Y-91217476D01*
X133707631Y-91387745D01*
X133707630Y-91387750D01*
X133687435Y-91566996D01*
X130923018Y-91566996D01*
X130931262Y-91561816D01*
X131058816Y-91434262D01*
X131154789Y-91281522D01*
X131214368Y-91111255D01*
X131219609Y-91064738D01*
X131234565Y-90932003D01*
X131234565Y-90931996D01*
X131214369Y-90752750D01*
X131214368Y-90752745D01*
X131171409Y-90629975D01*
X131167848Y-90560196D01*
X131202577Y-90499568D01*
X131264570Y-90467341D01*
X131302335Y-90465800D01*
X131309982Y-90466661D01*
X131317999Y-90467565D01*
X131318000Y-90467565D01*
X131318004Y-90467565D01*
X131497249Y-90447369D01*
X131497252Y-90447368D01*
X131497255Y-90447368D01*
X131667522Y-90387789D01*
X131820262Y-90291816D01*
X131947816Y-90164262D01*
X132043789Y-90011522D01*
X132103368Y-89841255D01*
X132103369Y-89841249D01*
X132123565Y-89662003D01*
X132123565Y-89661996D01*
X132103369Y-89482750D01*
X132103368Y-89482745D01*
X132043788Y-89312476D01*
X131947815Y-89159737D01*
X131820262Y-89032184D01*
X131667523Y-88936211D01*
X131497254Y-88876631D01*
X131497249Y-88876630D01*
X131318004Y-88856435D01*
X131317996Y-88856435D01*
X131138750Y-88876630D01*
X131138745Y-88876631D01*
X130968476Y-88936211D01*
X130815737Y-89032184D01*
X130688184Y-89159737D01*
X130592211Y-89312476D01*
X130532631Y-89482745D01*
X130532630Y-89482750D01*
X130512435Y-89661996D01*
X130512435Y-89662003D01*
X130532630Y-89841249D01*
X130532632Y-89841257D01*
X130575590Y-89964025D01*
X130579151Y-90033804D01*
X130544422Y-90094431D01*
X130482428Y-90126658D01*
X130444668Y-90128200D01*
X130430979Y-90126658D01*
X130429000Y-90126435D01*
X130428999Y-90126435D01*
X130428996Y-90126435D01*
X130249750Y-90146630D01*
X130249745Y-90146631D01*
X130079476Y-90206211D01*
X129926737Y-90302184D01*
X129799184Y-90429737D01*
X129703211Y-90582476D01*
X129643631Y-90752745D01*
X129643630Y-90752750D01*
X129623435Y-90931996D01*
X128524000Y-90931996D01*
X128524000Y-87629996D01*
X138640435Y-87629996D01*
X138640435Y-87630003D01*
X138660630Y-87809249D01*
X138660631Y-87809254D01*
X138720211Y-87979523D01*
X138816184Y-88132262D01*
X138943738Y-88259816D01*
X139096478Y-88355789D01*
X139266745Y-88415368D01*
X139266750Y-88415369D01*
X139445996Y-88435565D01*
X139446000Y-88435565D01*
X139446004Y-88435565D01*
X139625249Y-88415369D01*
X139625252Y-88415368D01*
X139625255Y-88415368D01*
X139795522Y-88355789D01*
X139948262Y-88259816D01*
X140075816Y-88132262D01*
X140171789Y-87979522D01*
X140231368Y-87809255D01*
X140251565Y-87630000D01*
X140239873Y-87526230D01*
X140251927Y-87457409D01*
X140275412Y-87424665D01*
X140329816Y-87370262D01*
X140425789Y-87217522D01*
X140485368Y-87047255D01*
X140486119Y-87040591D01*
X140505565Y-86868003D01*
X140505565Y-86867996D01*
X140485369Y-86688750D01*
X140485368Y-86688745D01*
X140425788Y-86518476D01*
X140329815Y-86365737D01*
X140202262Y-86238184D01*
X140049523Y-86142211D01*
X139879254Y-86082631D01*
X139879249Y-86082630D01*
X139700004Y-86062435D01*
X139699996Y-86062435D01*
X139520750Y-86082630D01*
X139520745Y-86082631D01*
X139350476Y-86142211D01*
X139197737Y-86238184D01*
X139070184Y-86365737D01*
X138974211Y-86518476D01*
X138914631Y-86688745D01*
X138914630Y-86688750D01*
X138894435Y-86867996D01*
X138894435Y-86868003D01*
X138906126Y-86971769D01*
X138894071Y-87040591D01*
X138870588Y-87073333D01*
X138816184Y-87127737D01*
X138720211Y-87280476D01*
X138660631Y-87450745D01*
X138660630Y-87450750D01*
X138640435Y-87629996D01*
X128524000Y-87629996D01*
X128524000Y-83565996D01*
X129750435Y-83565996D01*
X129750435Y-83566003D01*
X129770630Y-83745249D01*
X129770631Y-83745254D01*
X129830211Y-83915523D01*
X129835664Y-83924201D01*
X129926184Y-84068262D01*
X130053738Y-84195816D01*
X130206478Y-84291789D01*
X130376745Y-84351368D01*
X130376750Y-84351369D01*
X130555996Y-84371565D01*
X130556000Y-84371565D01*
X130556004Y-84371565D01*
X130735249Y-84351369D01*
X130735252Y-84351368D01*
X130735255Y-84351368D01*
X130905522Y-84291789D01*
X131058262Y-84195816D01*
X131185816Y-84068262D01*
X131281789Y-83915522D01*
X131341368Y-83745255D01*
X131343806Y-83723620D01*
X131361565Y-83566003D01*
X131361565Y-83565996D01*
X131341369Y-83386750D01*
X131341368Y-83386745D01*
X131281788Y-83216476D01*
X131222076Y-83121446D01*
X131185816Y-83063738D01*
X131058262Y-82936184D01*
X130959348Y-82874032D01*
X130905523Y-82840211D01*
X130735254Y-82780631D01*
X130735249Y-82780630D01*
X130556004Y-82760435D01*
X130555996Y-82760435D01*
X130376750Y-82780630D01*
X130376745Y-82780631D01*
X130206476Y-82840211D01*
X130053737Y-82936184D01*
X129926184Y-83063737D01*
X129830211Y-83216476D01*
X129770631Y-83386745D01*
X129770630Y-83386750D01*
X129750435Y-83565996D01*
X128524000Y-83565996D01*
X128524000Y-81785000D01*
X135823657Y-81785000D01*
X136677512Y-81785000D01*
X136660295Y-81794940D01*
X136604440Y-81850795D01*
X136564944Y-81919204D01*
X136544500Y-81995504D01*
X136544500Y-82074496D01*
X136564944Y-82150796D01*
X136604440Y-82219205D01*
X136660295Y-82275060D01*
X136677512Y-82285000D01*
X135823657Y-82285000D01*
X135834850Y-82341274D01*
X135834851Y-82341276D01*
X135914000Y-82532358D01*
X135914005Y-82532368D01*
X136028910Y-82704335D01*
X136028913Y-82704339D01*
X136175160Y-82850586D01*
X136175164Y-82850589D01*
X136347131Y-82965494D01*
X136347141Y-82965499D01*
X136538225Y-83044649D01*
X136538233Y-83044651D01*
X136741079Y-83084999D01*
X136741083Y-83085000D01*
X137044500Y-83085000D01*
X137044500Y-82335000D01*
X137544500Y-82335000D01*
X137544500Y-83050556D01*
X137524815Y-83117595D01*
X137508181Y-83138237D01*
X137456746Y-83189672D01*
X137437342Y-83216379D01*
X137387630Y-83313943D01*
X137377428Y-83345343D01*
X137360299Y-83453490D01*
X137360299Y-83486509D01*
X137377428Y-83594656D01*
X137387630Y-83626056D01*
X137437342Y-83723620D01*
X137437343Y-83723621D01*
X137456744Y-83750325D01*
X137456746Y-83750327D01*
X137456748Y-83750330D01*
X137534170Y-83827752D01*
X137534172Y-83827753D01*
X137534175Y-83827756D01*
X137560879Y-83847157D01*
X137658443Y-83896869D01*
X137658445Y-83896869D01*
X137658448Y-83896871D01*
X137689840Y-83907071D01*
X137730398Y-83913494D01*
X137797991Y-83924201D01*
X137797996Y-83924201D01*
X137831009Y-83924201D01*
X137891090Y-83914684D01*
X137939160Y-83907071D01*
X137970552Y-83896871D01*
X138068121Y-83847157D01*
X138094825Y-83827756D01*
X138094828Y-83827752D01*
X138094830Y-83827752D01*
X138172252Y-83750330D01*
X138172252Y-83750328D01*
X138172256Y-83750325D01*
X138191657Y-83723621D01*
X138241371Y-83626052D01*
X138251571Y-83594660D01*
X138259184Y-83546590D01*
X138268701Y-83486509D01*
X138268701Y-83453490D01*
X138251571Y-83345343D01*
X138251571Y-83345340D01*
X138241371Y-83313948D01*
X138241369Y-83313945D01*
X138241369Y-83313943D01*
X138191657Y-83216379D01*
X138172256Y-83189675D01*
X138172253Y-83189672D01*
X138172252Y-83189670D01*
X138165351Y-83182769D01*
X138131866Y-83121446D01*
X138136850Y-83051754D01*
X138178722Y-82995821D01*
X138205579Y-82980527D01*
X138241859Y-82965499D01*
X138241868Y-82965494D01*
X138413835Y-82850589D01*
X138413839Y-82850586D01*
X138560086Y-82704339D01*
X138560089Y-82704335D01*
X138674994Y-82532368D01*
X138674999Y-82532358D01*
X138754148Y-82341276D01*
X138754149Y-82341274D01*
X138765343Y-82285000D01*
X137911488Y-82285000D01*
X137928705Y-82275060D01*
X137984560Y-82219205D01*
X138024056Y-82150796D01*
X138044500Y-82074496D01*
X138044500Y-81995504D01*
X138024056Y-81919204D01*
X137984560Y-81850795D01*
X137928705Y-81794940D01*
X137911488Y-81785000D01*
X138765343Y-81785000D01*
X138765343Y-81784999D01*
X140120384Y-81784999D01*
X140120385Y-81785000D01*
X141027512Y-81785000D01*
X141010295Y-81794940D01*
X140954440Y-81850795D01*
X140914944Y-81919204D01*
X140894500Y-81995504D01*
X140894500Y-82074496D01*
X140914944Y-82150796D01*
X140954440Y-82219205D01*
X141010295Y-82275060D01*
X141027512Y-82285000D01*
X140120385Y-82285000D01*
X140121585Y-82292584D01*
X140175091Y-82457255D01*
X140253695Y-82611524D01*
X140355467Y-82751602D01*
X140477897Y-82874032D01*
X140617975Y-82975804D01*
X140772242Y-83054408D01*
X140936915Y-83107914D01*
X141107929Y-83135000D01*
X141244500Y-83135000D01*
X141244500Y-82335000D01*
X141744500Y-82335000D01*
X141744500Y-83135000D01*
X141881071Y-83135000D01*
X142052084Y-83107914D01*
X142216757Y-83054408D01*
X142371024Y-82975804D01*
X142511102Y-82874032D01*
X142633532Y-82751602D01*
X142735304Y-82611524D01*
X142813908Y-82457255D01*
X142867414Y-82292584D01*
X142868615Y-82285000D01*
X141961488Y-82285000D01*
X141978705Y-82275060D01*
X142034560Y-82219205D01*
X142074056Y-82150796D01*
X142094500Y-82074496D01*
X142094500Y-81995504D01*
X142074056Y-81919204D01*
X142034560Y-81850795D01*
X141978705Y-81794940D01*
X141961488Y-81785000D01*
X142868615Y-81785000D01*
X142868615Y-81784999D01*
X142867414Y-81777415D01*
X142813908Y-81612744D01*
X142735304Y-81458475D01*
X142633532Y-81318397D01*
X142518239Y-81203104D01*
X142484754Y-81141781D01*
X142489738Y-81072089D01*
X142531610Y-81016156D01*
X142564963Y-80998382D01*
X142589522Y-80989789D01*
X142742262Y-80893816D01*
X142869816Y-80766262D01*
X142965789Y-80613522D01*
X143025368Y-80443255D01*
X143025369Y-80443249D01*
X143045565Y-80264003D01*
X143045565Y-80263996D01*
X143025369Y-80084750D01*
X143025368Y-80084745D01*
X143002648Y-80019814D01*
X142965789Y-79914478D01*
X142869816Y-79761738D01*
X142742262Y-79634184D01*
X142589523Y-79538211D01*
X142419254Y-79478631D01*
X142419249Y-79478630D01*
X142240004Y-79458435D01*
X142239996Y-79458435D01*
X142060750Y-79478630D01*
X142060745Y-79478631D01*
X141890476Y-79538211D01*
X141737737Y-79634184D01*
X141610184Y-79761737D01*
X141514211Y-79914476D01*
X141454631Y-80084745D01*
X141454630Y-80084750D01*
X141434435Y-80263996D01*
X141434435Y-80264003D01*
X141454630Y-80443249D01*
X141454631Y-80443254D01*
X141514211Y-80613523D01*
X141610184Y-80766262D01*
X141708181Y-80864259D01*
X141741666Y-80925582D01*
X141744500Y-80951940D01*
X141744500Y-81735000D01*
X141244500Y-81735000D01*
X141244500Y-80935000D01*
X141107929Y-80935000D01*
X140936915Y-80962085D01*
X140772242Y-81015591D01*
X140617975Y-81094195D01*
X140477897Y-81195967D01*
X140355467Y-81318397D01*
X140253695Y-81458475D01*
X140175091Y-81612744D01*
X140121585Y-81777415D01*
X140120384Y-81784999D01*
X138765343Y-81784999D01*
X138754149Y-81728725D01*
X138754148Y-81728723D01*
X138674999Y-81537641D01*
X138674994Y-81537631D01*
X138560089Y-81365664D01*
X138560086Y-81365660D01*
X138413839Y-81219413D01*
X138413835Y-81219410D01*
X138241868Y-81104505D01*
X138241858Y-81104500D01*
X138050774Y-81025350D01*
X138050766Y-81025348D01*
X137847920Y-80985000D01*
X137544500Y-80985000D01*
X137544500Y-81735000D01*
X137044500Y-81735000D01*
X137044500Y-80985000D01*
X136741079Y-80985000D01*
X136538233Y-81025348D01*
X136538225Y-81025350D01*
X136347141Y-81104500D01*
X136347131Y-81104505D01*
X136175164Y-81219410D01*
X136175160Y-81219413D01*
X136028913Y-81365660D01*
X136028910Y-81365664D01*
X135914005Y-81537631D01*
X135914000Y-81537641D01*
X135834851Y-81728723D01*
X135834850Y-81728725D01*
X135823657Y-81785000D01*
X128524000Y-81785000D01*
X128524000Y-80644996D01*
X130639435Y-80644996D01*
X130639435Y-80645003D01*
X130659630Y-80824249D01*
X130659631Y-80824254D01*
X130719211Y-80994523D01*
X130781840Y-81094195D01*
X130815184Y-81147262D01*
X130942738Y-81274816D01*
X131012097Y-81318397D01*
X131087321Y-81365664D01*
X131095478Y-81370789D01*
X131265745Y-81430368D01*
X131265750Y-81430369D01*
X131444996Y-81450565D01*
X131445000Y-81450565D01*
X131445004Y-81450565D01*
X131624249Y-81430369D01*
X131624252Y-81430368D01*
X131624255Y-81430368D01*
X131794522Y-81370789D01*
X131947262Y-81274816D01*
X132074816Y-81147262D01*
X132170789Y-80994522D01*
X132178771Y-80971710D01*
X132219490Y-80914935D01*
X132284442Y-80889185D01*
X132353004Y-80902640D01*
X132361785Y-80907669D01*
X132463708Y-80971712D01*
X132492478Y-80989789D01*
X132662745Y-81049368D01*
X132662750Y-81049369D01*
X132841996Y-81069565D01*
X132842000Y-81069565D01*
X132842004Y-81069565D01*
X133021249Y-81049369D01*
X133021252Y-81049368D01*
X133021255Y-81049368D01*
X133191522Y-80989789D01*
X133344262Y-80893816D01*
X133471816Y-80766262D01*
X133567789Y-80613522D01*
X133627368Y-80443255D01*
X133627369Y-80443249D01*
X133647565Y-80264003D01*
X133647565Y-80263996D01*
X133627369Y-80084750D01*
X133627368Y-80084745D01*
X133604648Y-80019814D01*
X133601213Y-80009996D01*
X138132435Y-80009996D01*
X138132435Y-80010003D01*
X138152630Y-80189249D01*
X138152631Y-80189254D01*
X138212211Y-80359523D01*
X138308184Y-80512262D01*
X138435738Y-80639816D01*
X138588478Y-80735789D01*
X138675565Y-80766262D01*
X138758745Y-80795368D01*
X138758750Y-80795369D01*
X138937996Y-80815565D01*
X138938000Y-80815565D01*
X138938004Y-80815565D01*
X139117249Y-80795369D01*
X139117252Y-80795368D01*
X139117255Y-80795368D01*
X139287522Y-80735789D01*
X139440262Y-80639816D01*
X139567816Y-80512262D01*
X139663789Y-80359522D01*
X139723368Y-80189255D01*
X139728609Y-80142738D01*
X139743565Y-80010003D01*
X139743565Y-80009996D01*
X139723369Y-79830750D01*
X139723368Y-79830745D01*
X139663788Y-79660476D01*
X139567815Y-79507737D01*
X139440262Y-79380184D01*
X139287523Y-79284211D01*
X139117254Y-79224631D01*
X139117249Y-79224630D01*
X138938004Y-79204435D01*
X138937996Y-79204435D01*
X138758750Y-79224630D01*
X138758745Y-79224631D01*
X138588476Y-79284211D01*
X138435737Y-79380184D01*
X138308184Y-79507737D01*
X138212211Y-79660476D01*
X138152631Y-79830745D01*
X138152630Y-79830750D01*
X138132435Y-80009996D01*
X133601213Y-80009996D01*
X133567789Y-79914478D01*
X133471816Y-79761738D01*
X133344262Y-79634184D01*
X133191523Y-79538211D01*
X133021254Y-79478631D01*
X133021249Y-79478630D01*
X132842004Y-79458435D01*
X132841996Y-79458435D01*
X132662750Y-79478630D01*
X132662745Y-79478631D01*
X132492476Y-79538211D01*
X132339737Y-79634184D01*
X132212184Y-79761737D01*
X132116209Y-79914479D01*
X132108227Y-79937292D01*
X132067505Y-79994068D01*
X132002552Y-80019814D01*
X131933990Y-80006357D01*
X131925214Y-80001330D01*
X131794523Y-79919211D01*
X131624254Y-79859631D01*
X131624249Y-79859630D01*
X131445004Y-79839435D01*
X131444996Y-79839435D01*
X131265750Y-79859630D01*
X131265745Y-79859631D01*
X131095476Y-79919211D01*
X130942737Y-80015184D01*
X130815184Y-80142737D01*
X130719211Y-80295476D01*
X130659631Y-80465745D01*
X130659630Y-80465750D01*
X130639435Y-80644996D01*
X128524000Y-80644996D01*
X128524000Y-78864000D01*
X128543685Y-78796961D01*
X128596489Y-78751206D01*
X128648000Y-78740000D01*
X143793500Y-78740000D01*
X143860539Y-78759685D01*
G37*
%TD.AperFunction*%
%TD*%
M02*
