%TF.GenerationSoftware,KiCad,Pcbnew,8.0.4*%
%TF.CreationDate,2024-12-20T20:39:33-05:00*%
%TF.ProjectId,SurroundSensePCB,53757272-6f75-46e6-9453-656e73655043,rev?*%
%TF.SameCoordinates,Original*%
%TF.FileFunction,Profile,NP*%
%FSLAX46Y46*%
G04 Gerber Fmt 4.6, Leading zero omitted, Abs format (unit mm)*
G04 Created by KiCad (PCBNEW 8.0.4) date 2024-12-20 20:39:33*
%MOMM*%
%LPD*%
G01*
G04 APERTURE LIST*
%TA.AperFunction,Profile*%
%ADD10C,0.050000*%
%TD*%
%TA.AperFunction,Profile*%
%ADD11C,0.000000*%
%TD*%
G04 APERTURE END LIST*
D10*
X128270000Y-77470000D02*
G75*
G02*
X129286000Y-76454000I1016000J0D01*
G01*
X144018000Y-100076000D02*
X144018000Y-77470000D01*
X129286000Y-101092000D02*
G75*
G02*
X128270000Y-100076000I0J1016000D01*
G01*
X143002000Y-76454000D02*
X129286000Y-76454000D01*
X128270000Y-77470000D02*
X128270000Y-100076000D01*
X143002000Y-76454000D02*
G75*
G02*
X144018000Y-77470000I0J-1016000D01*
G01*
X129286000Y-101092000D02*
X143002000Y-101092000D01*
X144018000Y-100076000D02*
G75*
G02*
X143002000Y-101092000I-1016000J0D01*
G01*
D11*
%TA.AperFunction,Profile*%
%TO.C,USB1*%
G36*
X137922656Y-83137130D02*
G01*
X138020225Y-83186844D01*
X138097656Y-83264275D01*
X138147370Y-83361844D01*
X138164500Y-83470000D01*
X138147370Y-83578156D01*
X138097656Y-83675725D01*
X138020225Y-83753156D01*
X137922656Y-83802870D01*
X137814500Y-83820000D01*
X137706344Y-83802870D01*
X137608775Y-83753156D01*
X137531344Y-83675725D01*
X137481630Y-83578156D01*
X137464500Y-83470000D01*
X137481630Y-83361844D01*
X137531344Y-83264275D01*
X137608775Y-83186844D01*
X137706344Y-83137130D01*
X137814500Y-83120000D01*
X137922656Y-83137130D01*
G37*
%TD.AperFunction*%
%TA.AperFunction,Profile*%
G36*
X137922656Y-88917130D02*
G01*
X138020225Y-88966844D01*
X138097656Y-89044275D01*
X138147370Y-89141844D01*
X138164500Y-89250000D01*
X138147370Y-89358156D01*
X138097656Y-89455725D01*
X138020225Y-89533156D01*
X137922656Y-89582870D01*
X137814500Y-89600000D01*
X137706344Y-89582870D01*
X137608775Y-89533156D01*
X137531344Y-89455725D01*
X137481630Y-89358156D01*
X137464500Y-89250000D01*
X137481630Y-89141844D01*
X137531344Y-89044275D01*
X137608775Y-88966844D01*
X137706344Y-88917130D01*
X137814500Y-88900000D01*
X137922656Y-88917130D01*
G37*
%TD.AperFunction*%
%TA.AperFunction,Profile*%
%TO.C,MIC1*%
G36*
X129848171Y-94841030D02*
G01*
X129929277Y-94895223D01*
X129983470Y-94976329D01*
X130002500Y-95072000D01*
X129983470Y-95167671D01*
X129929277Y-95248777D01*
X129848171Y-95302970D01*
X129752500Y-95322000D01*
X129656829Y-95302970D01*
X129575723Y-95248777D01*
X129521530Y-95167671D01*
X129502500Y-95072000D01*
X129521530Y-94976329D01*
X129575723Y-94895223D01*
X129656829Y-94841030D01*
X129752500Y-94822000D01*
X129848171Y-94841030D01*
G37*
%TD.AperFunction*%
%TD*%
M02*
