M48
; DRILL file {KiCad 8.0.4} date 2024-12-20T20:39:33-0500
; FORMAT={-:-/ absolute / inch / decimal}
; #@! TF.CreationDate,2024-12-20T20:39:33-05:00
; #@! TF.GenerationSoftware,Kicad,Pcbnew,8.0.4
; #@! TF.FileFunction,Plated,1,4,PTH
FMAT,2
INCH
; #@! TA.AperFunction,Plated,PTH,ViaDrill
T1C0.0118
; #@! TA.AperFunction,Plated,PTH,ComponentDrill
T2C0.0236
%
G90
G05
T1
X5.08Y-3.79
X5.13Y-3.16
X5.13Y-3.325
X5.13Y-3.81
X5.135Y-3.58
X5.14Y-3.29
X5.16Y-3.746
X5.17Y-3.53
X5.175Y-3.175
X5.18Y-3.96
X5.2Y-3.22
X5.21Y-3.51
X5.21Y-3.745
X5.23Y-3.16
X5.235Y-3.725
X5.25Y-3.33
X5.25Y-3.43
X5.27Y-3.25
X5.275Y-3.75
X5.295Y-3.605
X5.3Y-3.16
X5.3Y-3.72
X5.305Y-3.88
X5.31Y-3.29
X5.311Y-3.949
X5.3236Y-3.7832
X5.34Y-3.58
X5.35Y-3.27
X5.355Y-3.875
X5.36Y-3.71
X5.405Y-3.88
X5.42Y-3.17
X5.425Y-3.635
X5.455Y-3.73
X5.4553Y-3.8547
X5.47Y-3.15
X5.47Y-3.96
X5.48Y-3.18
X5.4802Y-3.6182
X5.49Y-3.45
X5.5Y-3.42
X5.5Y-3.74
X5.5Y-3.845
X5.52Y-3.89
X5.53Y-3.815
X5.56Y-3.74
X5.56Y-3.945
X5.6Y-3.16
T2
G00X5.423Y-3.2297
M15
G01X5.3876Y-3.2297
M16
G05
G00X5.423Y-3.5703
M15
G01X5.3876Y-3.5703
M16
G05
G00X5.5825Y-3.2297
M15
G01X5.5588Y-3.2297
M16
G05
G00X5.5825Y-3.5703
M15
G01X5.5588Y-3.5703
M16
G05
M30
