%TF.GenerationSoftware,KiCad,Pcbnew,8.0.4*%
%TF.CreationDate,2024-12-20T20:39:33-05:00*%
%TF.ProjectId,SurroundSensePCB,53757272-6f75-46e6-9453-656e73655043,rev?*%
%TF.SameCoordinates,Original*%
%TF.FileFunction,Legend,Top*%
%TF.FilePolarity,Positive*%
%FSLAX46Y46*%
G04 Gerber Fmt 4.6, Leading zero omitted, Abs format (unit mm)*
G04 Created by KiCad (PCBNEW 8.0.4) date 2024-12-20 20:39:33*
%MOMM*%
%LPD*%
G01*
G04 APERTURE LIST*
%ADD10C,0.250000*%
%ADD11C,0.150000*%
%ADD12C,0.152500*%
%ADD13C,0.120000*%
%ADD14C,0.254000*%
%ADD15R,2.470000X0.980000*%
%ADD16R,2.470000X3.600000*%
%ADD17C,2.000000*%
%ADD18R,0.800000X0.400000*%
%ADD19R,0.400000X0.800000*%
%ADD20R,0.800000X0.800000*%
%ADD21R,1.200000X1.200000*%
%ADD22O,1.800000X1.200000*%
%ADD23O,2.000000X1.100000*%
G04 APERTURE END LIST*
D10*
G36*
X128918445Y-96913637D02*
G01*
X128902912Y-96864538D01*
X128854539Y-96842346D01*
X128816840Y-96839875D01*
X128766341Y-96845176D01*
X128725511Y-96873864D01*
X128716701Y-96913637D01*
X128716701Y-97808298D01*
X128732157Y-97857319D01*
X128779908Y-97879375D01*
X128816840Y-97881815D01*
X128868329Y-97876571D01*
X128909603Y-97848024D01*
X128918445Y-97808298D01*
X128918445Y-97451948D01*
X129804558Y-97451948D01*
X129804558Y-97808298D01*
X129820092Y-97857319D01*
X129868465Y-97879375D01*
X129906163Y-97881815D01*
X129956771Y-97876571D01*
X129997535Y-97848024D01*
X130006303Y-97808298D01*
X130006303Y-96913637D01*
X129990911Y-96864538D01*
X129943194Y-96842346D01*
X129906163Y-96839875D01*
X129854675Y-96845176D01*
X129813401Y-96873864D01*
X129804558Y-96913637D01*
X129804558Y-97285130D01*
X128918445Y-97285130D01*
X128918445Y-96913637D01*
G37*
G36*
X130956650Y-97069701D02*
G01*
X131021224Y-97076283D01*
X131078994Y-97087265D01*
X131129903Y-97102659D01*
X131187004Y-97130066D01*
X131231659Y-97165362D01*
X131263730Y-97208571D01*
X131283075Y-97259721D01*
X131289555Y-97318836D01*
X131289555Y-97622674D01*
X131283075Y-97681368D01*
X131263730Y-97732320D01*
X131231659Y-97775503D01*
X131187004Y-97810893D01*
X131129903Y-97838464D01*
X131078994Y-97853994D01*
X131021224Y-97865101D01*
X130956650Y-97871773D01*
X130885333Y-97874000D01*
X130504558Y-97874000D01*
X130433304Y-97871773D01*
X130368781Y-97865101D01*
X130311051Y-97853994D01*
X130260173Y-97838464D01*
X130203102Y-97810893D01*
X130158463Y-97775503D01*
X130126402Y-97732320D01*
X130107060Y-97681368D01*
X130100581Y-97622674D01*
X130100581Y-97548424D01*
X130101197Y-97542806D01*
X130294021Y-97542806D01*
X130294021Y-97622674D01*
X130309370Y-97663468D01*
X130350955Y-97692492D01*
X130401216Y-97707802D01*
X130456570Y-97715258D01*
X130510176Y-97717196D01*
X130879960Y-97717196D01*
X130907825Y-97716703D01*
X130968293Y-97711413D01*
X131024319Y-97698293D01*
X131072959Y-97671499D01*
X131096115Y-97622674D01*
X131096115Y-97448528D01*
X130510176Y-97448528D01*
X130469177Y-97449587D01*
X130411281Y-97455772D01*
X130358154Y-97469677D01*
X130313064Y-97497346D01*
X130294021Y-97542806D01*
X130101197Y-97542806D01*
X130107060Y-97489379D01*
X130126402Y-97438263D01*
X130158463Y-97395057D01*
X130203102Y-97359746D01*
X130260173Y-97332312D01*
X130311051Y-97316895D01*
X130368781Y-97305892D01*
X130433304Y-97299295D01*
X130504558Y-97297098D01*
X131096090Y-97303380D01*
X131084116Y-97270720D01*
X131039375Y-97243375D01*
X130989133Y-97231520D01*
X130933707Y-97225964D01*
X130879960Y-97224558D01*
X130748313Y-97224558D01*
X130739835Y-97224206D01*
X130696303Y-97195236D01*
X130688718Y-97146644D01*
X130689064Y-97133348D01*
X130702597Y-97086181D01*
X130748313Y-97067510D01*
X130885333Y-97067510D01*
X130956650Y-97069701D01*
G37*
G36*
X132198375Y-97069736D02*
G01*
X132262932Y-97076408D01*
X132320678Y-97087515D01*
X132371556Y-97103046D01*
X132428612Y-97130616D01*
X132473223Y-97166006D01*
X132505255Y-97209190D01*
X132524572Y-97260141D01*
X132531041Y-97318836D01*
X132531041Y-97622674D01*
X132524572Y-97681788D01*
X132505255Y-97732938D01*
X132473223Y-97776147D01*
X132428612Y-97811443D01*
X132371556Y-97838850D01*
X132320678Y-97854244D01*
X132262932Y-97865227D01*
X132198375Y-97871808D01*
X132127064Y-97874000D01*
X131580448Y-97874000D01*
X131580448Y-98035688D01*
X131573945Y-98071840D01*
X131533088Y-98104099D01*
X131482995Y-98109450D01*
X131446964Y-98106952D01*
X131401408Y-98084679D01*
X131387008Y-98035688D01*
X131387008Y-97318836D01*
X131580448Y-97318836D01*
X131580448Y-97717196D01*
X132121446Y-97717196D01*
X132162445Y-97716131D01*
X132220342Y-97709914D01*
X132273468Y-97695948D01*
X132318558Y-97668190D01*
X132337601Y-97622674D01*
X132337601Y-97318836D01*
X132322253Y-97278088D01*
X132280668Y-97249151D01*
X132230406Y-97233904D01*
X132175053Y-97226485D01*
X132121446Y-97224558D01*
X131796603Y-97224558D01*
X131768738Y-97225048D01*
X131708270Y-97230311D01*
X131652244Y-97243372D01*
X131603604Y-97270077D01*
X131580448Y-97318836D01*
X131387008Y-97318836D01*
X131393487Y-97260141D01*
X131412829Y-97209190D01*
X131444891Y-97166006D01*
X131489529Y-97130616D01*
X131546601Y-97103046D01*
X131597478Y-97087515D01*
X131655208Y-97076408D01*
X131719731Y-97069736D01*
X131790986Y-97067510D01*
X132127064Y-97067510D01*
X132198375Y-97069736D01*
G37*
G36*
X132619213Y-97067510D02*
G01*
X132573856Y-97086779D01*
X132560971Y-97137947D01*
X132560839Y-97146644D01*
X132567912Y-97195236D01*
X132610709Y-97224206D01*
X132619213Y-97224558D01*
X132691020Y-97224558D01*
X132691020Y-97806100D01*
X132705562Y-97855014D01*
X132751288Y-97877149D01*
X132787252Y-97879617D01*
X132837180Y-97874323D01*
X132877962Y-97842214D01*
X132884461Y-97806100D01*
X132884461Y-97224558D01*
X133172179Y-97224558D01*
X133217425Y-97205842D01*
X133230179Y-97155328D01*
X133230309Y-97146644D01*
X133223324Y-97097716D01*
X133180680Y-97067878D01*
X133172179Y-97067510D01*
X132884461Y-97067510D01*
X132884461Y-96911438D01*
X132869997Y-96862525D01*
X132823923Y-96840389D01*
X132787252Y-96837921D01*
X132738201Y-96843215D01*
X132697573Y-96875325D01*
X132691020Y-96911438D01*
X132691020Y-97067510D01*
X132619213Y-97067510D01*
G37*
G36*
X133490183Y-97145179D02*
G01*
X133475706Y-97096265D01*
X133429529Y-97074130D01*
X133392730Y-97071662D01*
X133343627Y-97076955D01*
X133303223Y-97109065D01*
X133296743Y-97145179D01*
X133296743Y-97806100D01*
X133311143Y-97855014D01*
X133356698Y-97877149D01*
X133392730Y-97879617D01*
X133442823Y-97874323D01*
X133483680Y-97842214D01*
X133490183Y-97806100D01*
X133490183Y-97145179D01*
G37*
G36*
X133274272Y-96932443D02*
G01*
X133285365Y-96982614D01*
X133324239Y-97015967D01*
X133377997Y-97026604D01*
X133392730Y-97026965D01*
X133445551Y-97021161D01*
X133489277Y-96997362D01*
X133510203Y-96949505D01*
X133511188Y-96932443D01*
X133500046Y-96882165D01*
X133461113Y-96848863D01*
X133407423Y-96838280D01*
X133392730Y-96837921D01*
X133340012Y-96843692D01*
X133296262Y-96867423D01*
X133275263Y-96915326D01*
X133274272Y-96932443D01*
G37*
G36*
X133970364Y-96843295D02*
G01*
X133906650Y-96845526D01*
X133848468Y-96852206D01*
X133795977Y-96863314D01*
X133749339Y-96878831D01*
X133696538Y-96906340D01*
X133654807Y-96941600D01*
X133624528Y-96984562D01*
X133606082Y-97035178D01*
X133599848Y-97093399D01*
X133599848Y-97806100D01*
X133614248Y-97855014D01*
X133659804Y-97877149D01*
X133695836Y-97879617D01*
X133745928Y-97874323D01*
X133786785Y-97842214D01*
X133793288Y-97806100D01*
X133793288Y-97224558D01*
X134070993Y-97224558D01*
X134116349Y-97205927D01*
X134129234Y-97155368D01*
X134129367Y-97146644D01*
X134122293Y-97097716D01*
X134079497Y-97067878D01*
X134070993Y-97067510D01*
X133795975Y-97067510D01*
X133825259Y-97025841D01*
X133876325Y-97007755D01*
X133927579Y-97001566D01*
X133970364Y-97000343D01*
X134070993Y-97000343D01*
X134116252Y-96981823D01*
X134129232Y-96931395D01*
X134129367Y-96922674D01*
X134122293Y-96873658D01*
X134079497Y-96843666D01*
X134070993Y-96843295D01*
X133970364Y-96843295D01*
G37*
G36*
X134624935Y-97697412D02*
G01*
X134571259Y-97695608D01*
X134515869Y-97688598D01*
X134465617Y-97673996D01*
X134424087Y-97645703D01*
X134408780Y-97604600D01*
X134408780Y-97135409D01*
X134394303Y-97086495D01*
X134348126Y-97064360D01*
X134311327Y-97061892D01*
X134262224Y-97067186D01*
X134221820Y-97099296D01*
X134215340Y-97135409D01*
X134215340Y-97603134D01*
X134221819Y-97662179D01*
X134241161Y-97713295D01*
X134273223Y-97756501D01*
X134317861Y-97791812D01*
X134374933Y-97819246D01*
X134425810Y-97834663D01*
X134483540Y-97845666D01*
X134548063Y-97852263D01*
X134619318Y-97854460D01*
X135144440Y-97853727D01*
X135143707Y-97853727D01*
X135129989Y-97902151D01*
X135088907Y-97930995D01*
X135033400Y-97943387D01*
X134979087Y-97946689D01*
X134966631Y-97946784D01*
X134773435Y-97946784D01*
X134728175Y-97965304D01*
X134715196Y-98015732D01*
X134715061Y-98024453D01*
X134722134Y-98073469D01*
X134764931Y-98103461D01*
X134773435Y-98103832D01*
X134966631Y-98103832D01*
X135030289Y-98101601D01*
X135088437Y-98094921D01*
X135140912Y-98083812D01*
X135187549Y-98068296D01*
X135240366Y-98040787D01*
X135282124Y-98005527D01*
X135312433Y-97962564D01*
X135330904Y-97911948D01*
X135337147Y-97853727D01*
X135337147Y-97135409D01*
X135322542Y-97086495D01*
X135276297Y-97064360D01*
X135239695Y-97061892D01*
X135190591Y-97067186D01*
X135150187Y-97099296D01*
X135143707Y-97135409D01*
X135143707Y-97697412D01*
X134624935Y-97697412D01*
G37*
D11*
X135105845Y-72034819D02*
X135105845Y-72844342D01*
X135105845Y-72844342D02*
X135153464Y-72939580D01*
X135153464Y-72939580D02*
X135201083Y-72987200D01*
X135201083Y-72987200D02*
X135296321Y-73034819D01*
X135296321Y-73034819D02*
X135486797Y-73034819D01*
X135486797Y-73034819D02*
X135582035Y-72987200D01*
X135582035Y-72987200D02*
X135629654Y-72939580D01*
X135629654Y-72939580D02*
X135677273Y-72844342D01*
X135677273Y-72844342D02*
X135677273Y-72034819D01*
X136677273Y-73034819D02*
X136105845Y-73034819D01*
X136391559Y-73034819D02*
X136391559Y-72034819D01*
X136391559Y-72034819D02*
X136296321Y-72177676D01*
X136296321Y-72177676D02*
X136201083Y-72272914D01*
X136201083Y-72272914D02*
X136105845Y-72320533D01*
D12*
%TO.C,U3*%
X138074500Y-94210000D02*
X140817500Y-94210000D01*
X138074500Y-100862000D02*
X138074500Y-94210000D01*
X140817500Y-94210000D02*
X140817500Y-100862000D01*
X140817500Y-100862000D02*
X138074500Y-100862000D01*
D13*
%TO.C,J4*%
X134296000Y-99314000D02*
G75*
G02*
X131896000Y-99314000I-1200000J0D01*
G01*
X131896000Y-99314000D02*
G75*
G02*
X134296000Y-99314000I1200000J0D01*
G01*
D14*
%TO.C,U1*%
X128438500Y-73407000D02*
X143938500Y-73407000D01*
X128438500Y-78457500D02*
X143938500Y-78457500D01*
X128438500Y-93907000D02*
X128438500Y-73407000D01*
X129638500Y-74107000D02*
X131238500Y-74107000D01*
X129638500Y-76807000D02*
X129638500Y-74107000D01*
X131238500Y-74107000D02*
X131238500Y-76807000D01*
X131238500Y-74107000D02*
X132738500Y-74107000D01*
X132738500Y-74107000D02*
X132738500Y-75707000D01*
X132738500Y-75707000D02*
X134938500Y-75707000D01*
X134938500Y-74107000D02*
X137138500Y-74107000D01*
X134938500Y-75707000D02*
X134938500Y-74107000D01*
X137138500Y-74107000D02*
X137138500Y-75707000D01*
X137138500Y-75707000D02*
X139338500Y-75707000D01*
X139338500Y-74107000D02*
X141438500Y-74107000D01*
X139338500Y-75707000D02*
X139338500Y-74107000D01*
X141438500Y-74107000D02*
X141438500Y-76807000D01*
X143938500Y-73407000D02*
X143938500Y-93907000D01*
X143938500Y-78457500D02*
X143938500Y-78421000D01*
X143938500Y-93907000D02*
X128438500Y-93907000D01*
X128080000Y-79907000D02*
G75*
G02*
X127797000Y-79907000I-141500J0D01*
G01*
X127797000Y-79907000D02*
G75*
G02*
X128080000Y-79907000I141500J0D01*
G01*
D13*
%TO.C,J3*%
X131248000Y-99314000D02*
G75*
G02*
X128848000Y-99314000I-1200000J0D01*
G01*
X128848000Y-99314000D02*
G75*
G02*
X131248000Y-99314000I1200000J0D01*
G01*
%TD*%
%LPC*%
D15*
%TO.C,U3*%
X136611000Y-95236000D03*
X136611000Y-97536000D03*
X136611000Y-99836000D03*
D16*
X142281000Y-97536000D03*
%TD*%
D17*
%TO.C,J4*%
X133096000Y-99314000D03*
%TD*%
D18*
%TO.C,U1*%
X129163500Y-80257000D03*
X129163500Y-81107000D03*
X129163500Y-81957000D03*
X129163500Y-82807000D03*
X129163500Y-83657000D03*
X129163500Y-84507000D03*
X129163500Y-85357000D03*
X129163500Y-86207000D03*
X129163500Y-87057000D03*
X129163500Y-87907000D03*
X129163500Y-88757000D03*
X129163500Y-89607000D03*
X129163500Y-90457000D03*
X129163500Y-91307000D03*
X129163500Y-92157000D03*
D19*
X130188500Y-93232000D03*
X131038500Y-93232000D03*
X131888500Y-93232000D03*
X132738500Y-93232000D03*
X133588500Y-93232000D03*
X134438500Y-93232000D03*
X135288500Y-93232000D03*
X136138500Y-93232000D03*
X136988500Y-93232000D03*
X137838500Y-93232000D03*
X138688500Y-93232000D03*
X139538500Y-93232000D03*
X140388500Y-93232000D03*
X141238500Y-93232000D03*
X142088500Y-93232000D03*
D18*
X143113500Y-92157000D03*
X143113500Y-91307000D03*
X143113500Y-90457000D03*
X143113500Y-89607000D03*
X143113500Y-88757000D03*
X143113500Y-87907000D03*
X143113500Y-87057000D03*
X143113500Y-86207000D03*
X143113500Y-85357000D03*
X143113500Y-84507000D03*
X143113500Y-83657000D03*
X143113500Y-82807000D03*
X143113500Y-81957000D03*
X143113500Y-81107000D03*
X143113500Y-80257000D03*
D19*
X142088500Y-79182000D03*
X141238500Y-79182000D03*
X140388500Y-79182000D03*
X139538500Y-79182000D03*
X138688500Y-79182000D03*
X137838500Y-79182000D03*
X136988500Y-79182000D03*
X136138500Y-79182000D03*
X135288500Y-79182000D03*
X134438500Y-79182000D03*
X133588500Y-79182000D03*
X132738500Y-79182000D03*
X131888500Y-79182000D03*
X131038500Y-79182000D03*
X130188500Y-79182000D03*
D20*
X129138500Y-79207000D03*
X129138500Y-93207000D03*
D21*
X134488500Y-84557000D03*
X134488500Y-86207000D03*
X134488500Y-87857000D03*
X136138500Y-84557000D03*
X136138500Y-86207000D03*
X136138500Y-87857000D03*
X137788500Y-84557000D03*
X137788500Y-86207000D03*
X137788500Y-87857000D03*
D20*
X143138500Y-79207000D03*
X143138500Y-93207000D03*
%TD*%
D17*
%TO.C,J3*%
X130048000Y-99314000D03*
%TD*%
D22*
%TO.C,USB1*%
X141494500Y-82035000D03*
D23*
X137294500Y-82035000D03*
D22*
X141494500Y-90685000D03*
D23*
X137294500Y-90685000D03*
%TD*%
%LPD*%
M02*
