%TF.GenerationSoftware,KiCad,Pcbnew,8.0.4*%
%TF.CreationDate,2024-12-20T20:39:33-05:00*%
%TF.ProjectId,SurroundSensePCB,53757272-6f75-46e6-9453-656e73655043,rev?*%
%TF.SameCoordinates,Original*%
%TF.FileFunction,Copper,L2,Inr*%
%TF.FilePolarity,Positive*%
%FSLAX46Y46*%
G04 Gerber Fmt 4.6, Leading zero omitted, Abs format (unit mm)*
G04 Created by KiCad (PCBNEW 8.0.4) date 2024-12-20 20:39:33*
%MOMM*%
%LPD*%
G01*
G04 APERTURE LIST*
%TA.AperFunction,ComponentPad*%
%ADD10O,1.800000X1.200000*%
%TD*%
%TA.AperFunction,ComponentPad*%
%ADD11O,2.000000X1.100000*%
%TD*%
%TA.AperFunction,ViaPad*%
%ADD12C,0.600000*%
%TD*%
G04 APERTURE END LIST*
D10*
%TO.N,GND*%
%TO.C,USB1*%
X141494500Y-82035000D03*
D11*
X137294500Y-82035000D03*
D10*
X141494500Y-90685000D03*
D11*
X137294500Y-90685000D03*
%TD*%
D12*
%TO.N,GND*%
X131572000Y-100584000D03*
X137668000Y-80518000D03*
X140462000Y-96901000D03*
X134747000Y-98552000D03*
X130302000Y-80264000D03*
X134620000Y-94488000D03*
X129032000Y-96266000D03*
X141224000Y-100203000D03*
X135890000Y-83058000D03*
X141224000Y-94996000D03*
X133350000Y-84582000D03*
X139192000Y-80772000D03*
X133858000Y-82550000D03*
X130302000Y-84455000D03*
X132334000Y-89154000D03*
X134620000Y-80264000D03*
X132080000Y-81788000D03*
X134874000Y-83566000D03*
X133350000Y-87122000D03*
%TO.N,+3.3V*%
X131445000Y-80645000D03*
X131318000Y-89662000D03*
X138938000Y-80010000D03*
X137287000Y-98552000D03*
X140208000Y-98806000D03*
X135636000Y-90932000D03*
X132842000Y-80264000D03*
X132969000Y-94615000D03*
X138938000Y-100584000D03*
X139700000Y-94996000D03*
%TO.N,/en*%
X142240000Y-80264000D03*
%TO.N,/out+*%
X138565054Y-97908946D03*
X134898805Y-100305195D03*
%TO.N,/out-*%
X139700000Y-97663000D03*
X130302000Y-96774000D03*
%TO.N,/sda*%
X134493000Y-91567000D03*
X138557000Y-94742000D03*
X136144000Y-94234000D03*
%TO.N,/scl*%
X135220144Y-96094388D03*
X133985000Y-95250000D03*
X130429000Y-90932000D03*
%TO.N,/boot*%
X130556000Y-83566000D03*
%TO.N,/mic_data*%
X132334000Y-95123000D03*
%TO.N,/usb_p*%
X139446000Y-87630000D03*
X137795000Y-92329000D03*
X139197705Y-91901822D03*
%TO.N,/usb_n*%
X139700000Y-86868000D03*
%TO.N,/mic_clk*%
X131064000Y-95147498D03*
%TO.N,+5V*%
X136017000Y-98426002D03*
%TD*%
%TA.AperFunction,Conductor*%
%TO.N,+3.3V*%
G36*
X143860539Y-78759685D02*
G01*
X143906294Y-78812489D01*
X143917500Y-78864000D01*
X143917500Y-100070586D01*
X143917028Y-100081394D01*
X143904536Y-100224167D01*
X143900783Y-100245452D01*
X143865096Y-100378639D01*
X143857703Y-100398951D01*
X143799430Y-100523918D01*
X143788623Y-100542636D01*
X143709536Y-100655585D01*
X143695642Y-100672143D01*
X143598143Y-100769642D01*
X143581585Y-100783536D01*
X143468636Y-100862623D01*
X143449918Y-100873430D01*
X143324951Y-100931703D01*
X143304639Y-100939096D01*
X143171452Y-100974783D01*
X143150167Y-100978536D01*
X143007395Y-100991028D01*
X142996587Y-100991500D01*
X141866940Y-100991500D01*
X141799901Y-100971815D01*
X141754146Y-100919011D01*
X141744202Y-100849853D01*
X141773227Y-100786297D01*
X141779259Y-100779819D01*
X141795829Y-100763249D01*
X141853816Y-100705262D01*
X141949789Y-100552522D01*
X142009368Y-100382255D01*
X142009369Y-100382249D01*
X142029565Y-100203003D01*
X142029565Y-100202996D01*
X142009369Y-100023750D01*
X142009368Y-100023745D01*
X141949789Y-99853478D01*
X141853816Y-99700738D01*
X141726262Y-99573184D01*
X141641345Y-99519827D01*
X141573523Y-99477211D01*
X141403254Y-99417631D01*
X141403249Y-99417630D01*
X141224004Y-99397435D01*
X141223996Y-99397435D01*
X141044750Y-99417630D01*
X141044745Y-99417631D01*
X140874476Y-99477211D01*
X140721737Y-99573184D01*
X140594184Y-99700737D01*
X140498211Y-99853476D01*
X140438631Y-100023745D01*
X140438630Y-100023750D01*
X140418435Y-100202996D01*
X140418435Y-100203003D01*
X140438630Y-100382249D01*
X140438631Y-100382254D01*
X140498211Y-100552523D01*
X140594184Y-100705262D01*
X140668741Y-100779819D01*
X140702226Y-100841142D01*
X140697242Y-100910834D01*
X140655370Y-100966767D01*
X140589906Y-100991184D01*
X140581060Y-100991500D01*
X135637340Y-100991500D01*
X135570301Y-100971815D01*
X135524546Y-100919011D01*
X135514602Y-100849853D01*
X135532346Y-100801528D01*
X135624594Y-100654717D01*
X135684173Y-100484450D01*
X135693154Y-100404745D01*
X135704370Y-100305198D01*
X135704370Y-100305191D01*
X135684174Y-100125945D01*
X135684173Y-100125940D01*
X135624593Y-99955671D01*
X135585387Y-99893275D01*
X135528621Y-99802933D01*
X135401067Y-99675379D01*
X135248328Y-99579406D01*
X135075925Y-99519080D01*
X135019149Y-99478358D01*
X134993402Y-99413405D01*
X135006858Y-99344844D01*
X135055245Y-99294441D01*
X135075926Y-99284996D01*
X135082045Y-99282854D01*
X135096522Y-99277789D01*
X135249262Y-99181816D01*
X135359158Y-99071920D01*
X135420481Y-99038435D01*
X135490173Y-99043419D01*
X135512811Y-99054607D01*
X135514737Y-99055817D01*
X135514738Y-99055818D01*
X135667478Y-99151791D01*
X135753282Y-99181815D01*
X135837745Y-99211370D01*
X135837750Y-99211371D01*
X136016996Y-99231567D01*
X136017000Y-99231567D01*
X136017004Y-99231567D01*
X136196249Y-99211371D01*
X136196252Y-99211370D01*
X136196255Y-99211370D01*
X136366522Y-99151791D01*
X136519262Y-99055818D01*
X136646816Y-98928264D01*
X136742789Y-98775524D01*
X136802368Y-98605257D01*
X136802369Y-98605251D01*
X136822565Y-98426005D01*
X136822565Y-98425998D01*
X136802369Y-98246752D01*
X136802368Y-98246747D01*
X136742788Y-98076478D01*
X136702601Y-98012522D01*
X136646816Y-97923740D01*
X136632018Y-97908942D01*
X137759489Y-97908942D01*
X137759489Y-97908949D01*
X137779684Y-98088195D01*
X137779685Y-98088200D01*
X137839265Y-98258469D01*
X137921151Y-98388789D01*
X137935238Y-98411208D01*
X138062792Y-98538762D01*
X138083865Y-98552003D01*
X138168608Y-98605251D01*
X138215532Y-98634735D01*
X138385799Y-98694314D01*
X138385804Y-98694315D01*
X138565050Y-98714511D01*
X138565054Y-98714511D01*
X138565058Y-98714511D01*
X138744303Y-98694315D01*
X138744306Y-98694314D01*
X138744309Y-98694314D01*
X138914576Y-98634735D01*
X139067316Y-98538762D01*
X139194870Y-98411208D01*
X139194870Y-98411207D01*
X139198760Y-98407318D01*
X139260083Y-98373833D01*
X139329775Y-98378817D01*
X139344135Y-98385914D01*
X139344205Y-98385769D01*
X139350470Y-98388786D01*
X139350477Y-98388788D01*
X139350478Y-98388789D01*
X139403431Y-98407318D01*
X139520745Y-98448368D01*
X139520750Y-98448369D01*
X139699996Y-98468565D01*
X139700000Y-98468565D01*
X139700004Y-98468565D01*
X139879249Y-98448369D01*
X139879252Y-98448368D01*
X139879255Y-98448368D01*
X140049522Y-98388789D01*
X140202262Y-98292816D01*
X140329816Y-98165262D01*
X140425789Y-98012522D01*
X140485368Y-97842255D01*
X140487176Y-97826211D01*
X140490082Y-97800420D01*
X140517148Y-97736005D01*
X140574742Y-97696450D01*
X140599420Y-97691082D01*
X140641249Y-97686369D01*
X140641252Y-97686368D01*
X140641255Y-97686368D01*
X140811522Y-97626789D01*
X140964262Y-97530816D01*
X141091816Y-97403262D01*
X141187789Y-97250522D01*
X141247368Y-97080255D01*
X141252672Y-97033183D01*
X141267565Y-96901003D01*
X141267565Y-96900996D01*
X141247369Y-96721750D01*
X141247368Y-96721745D01*
X141203595Y-96596650D01*
X141187789Y-96551478D01*
X141091816Y-96398738D01*
X140964262Y-96271184D01*
X140811523Y-96175211D01*
X140641254Y-96115631D01*
X140641249Y-96115630D01*
X140462004Y-96095435D01*
X140461996Y-96095435D01*
X140282750Y-96115630D01*
X140282745Y-96115631D01*
X140112476Y-96175211D01*
X139959737Y-96271184D01*
X139832184Y-96398737D01*
X139736210Y-96551478D01*
X139676630Y-96721750D01*
X139671917Y-96763582D01*
X139644850Y-96827996D01*
X139587254Y-96867550D01*
X139562582Y-96872917D01*
X139520750Y-96877630D01*
X139350478Y-96937210D01*
X139197739Y-97033183D01*
X139066294Y-97164628D01*
X139004971Y-97198112D01*
X138935279Y-97193128D01*
X138920918Y-97186032D01*
X138920849Y-97186177D01*
X138914583Y-97183159D01*
X138744308Y-97123577D01*
X138744303Y-97123576D01*
X138565058Y-97103381D01*
X138565050Y-97103381D01*
X138385804Y-97123576D01*
X138385799Y-97123577D01*
X138215530Y-97183157D01*
X138062791Y-97279130D01*
X137935238Y-97406683D01*
X137839265Y-97559422D01*
X137779685Y-97729691D01*
X137779684Y-97729696D01*
X137759489Y-97908942D01*
X136632018Y-97908942D01*
X136519262Y-97796186D01*
X136423485Y-97736005D01*
X136366523Y-97700213D01*
X136196254Y-97640633D01*
X136196249Y-97640632D01*
X136017004Y-97620437D01*
X136016996Y-97620437D01*
X135837750Y-97640632D01*
X135837745Y-97640633D01*
X135667476Y-97700213D01*
X135514739Y-97796185D01*
X135404841Y-97906083D01*
X135343518Y-97939567D01*
X135273826Y-97934583D01*
X135251187Y-97923394D01*
X135249263Y-97922185D01*
X135249262Y-97922184D01*
X135211003Y-97898144D01*
X135096524Y-97826211D01*
X134926254Y-97766631D01*
X134926249Y-97766630D01*
X134747004Y-97746435D01*
X134746996Y-97746435D01*
X134567750Y-97766630D01*
X134567745Y-97766631D01*
X134397476Y-97826211D01*
X134244737Y-97922184D01*
X134117184Y-98049737D01*
X134021211Y-98202476D01*
X133961631Y-98372745D01*
X133961630Y-98372750D01*
X133941435Y-98551996D01*
X133941435Y-98552003D01*
X133961630Y-98731249D01*
X133961631Y-98731254D01*
X134021211Y-98901523D01*
X134038014Y-98928264D01*
X134117184Y-99054262D01*
X134244738Y-99181816D01*
X134397478Y-99277789D01*
X134567745Y-99337368D01*
X134567746Y-99337368D01*
X134569878Y-99338114D01*
X134626654Y-99378836D01*
X134652402Y-99443788D01*
X134638946Y-99512350D01*
X134590559Y-99562753D01*
X134569883Y-99572196D01*
X134549285Y-99579404D01*
X134396542Y-99675379D01*
X134268989Y-99802932D01*
X134173016Y-99955671D01*
X134113436Y-100125940D01*
X134113435Y-100125945D01*
X134093240Y-100305191D01*
X134093240Y-100305198D01*
X134113435Y-100484444D01*
X134113436Y-100484449D01*
X134148271Y-100584000D01*
X134173016Y-100654717D01*
X134255693Y-100786297D01*
X134265264Y-100801528D01*
X134284264Y-100868764D01*
X134263896Y-100935600D01*
X134210629Y-100980814D01*
X134160270Y-100991500D01*
X132452264Y-100991500D01*
X132385225Y-100971815D01*
X132339470Y-100919011D01*
X132329526Y-100849853D01*
X132335222Y-100826546D01*
X132351572Y-100779819D01*
X132357368Y-100763255D01*
X132362372Y-100718844D01*
X132377565Y-100584003D01*
X132377565Y-100583996D01*
X132357369Y-100404750D01*
X132357368Y-100404745D01*
X132322534Y-100305195D01*
X132297789Y-100234478D01*
X132201816Y-100081738D01*
X132074262Y-99954184D01*
X131921523Y-99858211D01*
X131751254Y-99798631D01*
X131751249Y-99798630D01*
X131572004Y-99778435D01*
X131571996Y-99778435D01*
X131392750Y-99798630D01*
X131392745Y-99798631D01*
X131222476Y-99858211D01*
X131069737Y-99954184D01*
X130942184Y-100081737D01*
X130846211Y-100234476D01*
X130786631Y-100404745D01*
X130786630Y-100404750D01*
X130766435Y-100583996D01*
X130766435Y-100584003D01*
X130786630Y-100763249D01*
X130786632Y-100763257D01*
X130808778Y-100826546D01*
X130812339Y-100896324D01*
X130777610Y-100956952D01*
X130715617Y-100989179D01*
X130691736Y-100991500D01*
X129291413Y-100991500D01*
X129280605Y-100991028D01*
X129137832Y-100978536D01*
X129116547Y-100974783D01*
X128983360Y-100939096D01*
X128963048Y-100931703D01*
X128838081Y-100873430D01*
X128819363Y-100862623D01*
X128706414Y-100783536D01*
X128689856Y-100769642D01*
X128592357Y-100672143D01*
X128578463Y-100655585D01*
X128577855Y-100654717D01*
X128499375Y-100542635D01*
X128488569Y-100523918D01*
X128430296Y-100398951D01*
X128422903Y-100378639D01*
X128387216Y-100245452D01*
X128383463Y-100224166D01*
X128381611Y-100203003D01*
X128370972Y-100081393D01*
X128370500Y-100070586D01*
X128370500Y-97020121D01*
X128390185Y-96953082D01*
X128442989Y-96907327D01*
X128512147Y-96897383D01*
X128560472Y-96915128D01*
X128682473Y-96991787D01*
X128682477Y-96991788D01*
X128682478Y-96991789D01*
X128800775Y-97033183D01*
X128852745Y-97051368D01*
X128852750Y-97051369D01*
X129031996Y-97071565D01*
X129032000Y-97071565D01*
X129032004Y-97071565D01*
X129211249Y-97051369D01*
X129211251Y-97051368D01*
X129211255Y-97051368D01*
X129211258Y-97051366D01*
X129211262Y-97051366D01*
X129270185Y-97030747D01*
X129381522Y-96991789D01*
X129381537Y-96991779D01*
X129383664Y-96990756D01*
X129385194Y-96990503D01*
X129388095Y-96989489D01*
X129388272Y-96989996D01*
X129452604Y-96979400D01*
X129516741Y-97007118D01*
X129554515Y-97061519D01*
X129576210Y-97123521D01*
X129615580Y-97186177D01*
X129672184Y-97276262D01*
X129799738Y-97403816D01*
X129952478Y-97499789D01*
X130041148Y-97530816D01*
X130122745Y-97559368D01*
X130122750Y-97559369D01*
X130301996Y-97579565D01*
X130302000Y-97579565D01*
X130302004Y-97579565D01*
X130481249Y-97559369D01*
X130481252Y-97559368D01*
X130481255Y-97559368D01*
X130651522Y-97499789D01*
X130804262Y-97403816D01*
X130931816Y-97276262D01*
X131027789Y-97123522D01*
X131087368Y-96953255D01*
X131087369Y-96953249D01*
X131107565Y-96774003D01*
X131107565Y-96773996D01*
X131087369Y-96594750D01*
X131087368Y-96594745D01*
X131072228Y-96551478D01*
X131027789Y-96424478D01*
X131011615Y-96398738D01*
X130933012Y-96273642D01*
X130931816Y-96271738D01*
X130806469Y-96146391D01*
X130772984Y-96085068D01*
X130777968Y-96015376D01*
X130819840Y-95959443D01*
X130885304Y-95935026D01*
X130908034Y-95935490D01*
X131063997Y-95953063D01*
X131064000Y-95953063D01*
X131064004Y-95953063D01*
X131243249Y-95932867D01*
X131243252Y-95932866D01*
X131243255Y-95932866D01*
X131413522Y-95873287D01*
X131566262Y-95777314D01*
X131623568Y-95720008D01*
X131684891Y-95686523D01*
X131754583Y-95691507D01*
X131798930Y-95720008D01*
X131831738Y-95752816D01*
X131877178Y-95781368D01*
X131929369Y-95814162D01*
X131984478Y-95848789D01*
X132073148Y-95879816D01*
X132154745Y-95908368D01*
X132154750Y-95908369D01*
X132333996Y-95928565D01*
X132334000Y-95928565D01*
X132334004Y-95928565D01*
X132513249Y-95908369D01*
X132513252Y-95908368D01*
X132513255Y-95908368D01*
X132683522Y-95848789D01*
X132836262Y-95752816D01*
X132963816Y-95625262D01*
X133022344Y-95532115D01*
X133074676Y-95485826D01*
X133143730Y-95475177D01*
X133207578Y-95503552D01*
X133244377Y-95557133D01*
X133259209Y-95599520D01*
X133350537Y-95744866D01*
X133355184Y-95752262D01*
X133482738Y-95879816D01*
X133524602Y-95906121D01*
X133609463Y-95959443D01*
X133635478Y-95975789D01*
X133718081Y-96004693D01*
X133805745Y-96035368D01*
X133805750Y-96035369D01*
X133984996Y-96055565D01*
X133985000Y-96055565D01*
X133985004Y-96055565D01*
X134164249Y-96035369D01*
X134164251Y-96035368D01*
X134164255Y-96035368D01*
X134164258Y-96035366D01*
X134164262Y-96035366D01*
X134251920Y-96004693D01*
X134321698Y-96001130D01*
X134382326Y-96035859D01*
X134414554Y-96097852D01*
X134416095Y-96107850D01*
X134434774Y-96273638D01*
X134434775Y-96273642D01*
X134494355Y-96443911D01*
X134589131Y-96594745D01*
X134590328Y-96596650D01*
X134717882Y-96724204D01*
X134870622Y-96820177D01*
X134989705Y-96861846D01*
X135040889Y-96879756D01*
X135040894Y-96879757D01*
X135220140Y-96899953D01*
X135220144Y-96899953D01*
X135220148Y-96899953D01*
X135399393Y-96879757D01*
X135399396Y-96879756D01*
X135399399Y-96879756D01*
X135569666Y-96820177D01*
X135722406Y-96724204D01*
X135849960Y-96596650D01*
X135945933Y-96443910D01*
X136005512Y-96273643D01*
X136019850Y-96146391D01*
X136025709Y-96094391D01*
X136025709Y-96094384D01*
X136005513Y-95915138D01*
X136005512Y-95915133D01*
X135958706Y-95781369D01*
X135945933Y-95744866D01*
X135849960Y-95592126D01*
X135722406Y-95464572D01*
X135715822Y-95460435D01*
X135569667Y-95368599D01*
X135399398Y-95309019D01*
X135399394Y-95309018D01*
X135234352Y-95290423D01*
X135169938Y-95263356D01*
X135130383Y-95205762D01*
X135128246Y-95135925D01*
X135160552Y-95079525D01*
X135249816Y-94990262D01*
X135345789Y-94837522D01*
X135350508Y-94824037D01*
X135391229Y-94767260D01*
X135456181Y-94741512D01*
X135524743Y-94754967D01*
X135555231Y-94777309D01*
X135641738Y-94863816D01*
X135695857Y-94897821D01*
X135788054Y-94955753D01*
X135794478Y-94959789D01*
X135881565Y-94990262D01*
X135964745Y-95019368D01*
X135964750Y-95019369D01*
X136143996Y-95039565D01*
X136144000Y-95039565D01*
X136144004Y-95039565D01*
X136323249Y-95019369D01*
X136323252Y-95019368D01*
X136323255Y-95019368D01*
X136493522Y-94959789D01*
X136646262Y-94863816D01*
X136768082Y-94741996D01*
X137751435Y-94741996D01*
X137751435Y-94742003D01*
X137771630Y-94921249D01*
X137771631Y-94921254D01*
X137831211Y-95091523D01*
X137915886Y-95226281D01*
X137927184Y-95244262D01*
X138054738Y-95371816D01*
X138207478Y-95467789D01*
X138294565Y-95498262D01*
X138377745Y-95527368D01*
X138377750Y-95527369D01*
X138556996Y-95547565D01*
X138557000Y-95547565D01*
X138557004Y-95547565D01*
X138736249Y-95527369D01*
X138736252Y-95527368D01*
X138736255Y-95527368D01*
X138906522Y-95467789D01*
X139059262Y-95371816D01*
X139186816Y-95244262D01*
X139282789Y-95091522D01*
X139316215Y-94995996D01*
X140418435Y-94995996D01*
X140418435Y-94996003D01*
X140438630Y-95175249D01*
X140438631Y-95175254D01*
X140498211Y-95345523D01*
X140578010Y-95472522D01*
X140594184Y-95498262D01*
X140721738Y-95625816D01*
X140738239Y-95636184D01*
X140871643Y-95720008D01*
X140874478Y-95721789D01*
X141033159Y-95777314D01*
X141044745Y-95781368D01*
X141044750Y-95781369D01*
X141223996Y-95801565D01*
X141224000Y-95801565D01*
X141224004Y-95801565D01*
X141403249Y-95781369D01*
X141403252Y-95781368D01*
X141403255Y-95781368D01*
X141573522Y-95721789D01*
X141726262Y-95625816D01*
X141853816Y-95498262D01*
X141949789Y-95345522D01*
X142009368Y-95175255D01*
X142009369Y-95175249D01*
X142029565Y-94996003D01*
X142029565Y-94995996D01*
X142009369Y-94816750D01*
X142009368Y-94816745D01*
X141983215Y-94742003D01*
X141949789Y-94646478D01*
X141933615Y-94620738D01*
X141853815Y-94493737D01*
X141726262Y-94366184D01*
X141573523Y-94270211D01*
X141403254Y-94210631D01*
X141403249Y-94210630D01*
X141224004Y-94190435D01*
X141223996Y-94190435D01*
X141044750Y-94210630D01*
X141044745Y-94210631D01*
X140874476Y-94270211D01*
X140721737Y-94366184D01*
X140594184Y-94493737D01*
X140498211Y-94646476D01*
X140438631Y-94816745D01*
X140438630Y-94816750D01*
X140418435Y-94995996D01*
X139316215Y-94995996D01*
X139342368Y-94921255D01*
X139342767Y-94917717D01*
X139362565Y-94742003D01*
X139362565Y-94741996D01*
X139342369Y-94562750D01*
X139342368Y-94562745D01*
X139318221Y-94493737D01*
X139282789Y-94392478D01*
X139266267Y-94366184D01*
X139186815Y-94239737D01*
X139059262Y-94112184D01*
X138906523Y-94016211D01*
X138736254Y-93956631D01*
X138736249Y-93956630D01*
X138557004Y-93936435D01*
X138556996Y-93936435D01*
X138377750Y-93956630D01*
X138377745Y-93956631D01*
X138207476Y-94016211D01*
X138054737Y-94112184D01*
X137927184Y-94239737D01*
X137831211Y-94392476D01*
X137771631Y-94562745D01*
X137771630Y-94562750D01*
X137751435Y-94741996D01*
X136768082Y-94741996D01*
X136773816Y-94736262D01*
X136869789Y-94583522D01*
X136929368Y-94413255D01*
X136931709Y-94392478D01*
X136949565Y-94234003D01*
X136949565Y-94233996D01*
X136929369Y-94054750D01*
X136929368Y-94054745D01*
X136890858Y-93944690D01*
X136869789Y-93884478D01*
X136853267Y-93858184D01*
X136773815Y-93731737D01*
X136646262Y-93604184D01*
X136493523Y-93508211D01*
X136323254Y-93448631D01*
X136323249Y-93448630D01*
X136144004Y-93428435D01*
X136143996Y-93428435D01*
X135964750Y-93448630D01*
X135964745Y-93448631D01*
X135794476Y-93508211D01*
X135641737Y-93604184D01*
X135514184Y-93731737D01*
X135418210Y-93884479D01*
X135413489Y-93897969D01*
X135372764Y-93954743D01*
X135307810Y-93980487D01*
X135239249Y-93967028D01*
X135208768Y-93944690D01*
X135122262Y-93858184D01*
X134969523Y-93762211D01*
X134799254Y-93702631D01*
X134799249Y-93702630D01*
X134620004Y-93682435D01*
X134619996Y-93682435D01*
X134440750Y-93702630D01*
X134440745Y-93702631D01*
X134270476Y-93762211D01*
X134117737Y-93858184D01*
X133990184Y-93985737D01*
X133894210Y-94138478D01*
X133834630Y-94308750D01*
X133826255Y-94383083D01*
X133799188Y-94447497D01*
X133743990Y-94486241D01*
X133635476Y-94524211D01*
X133482737Y-94620184D01*
X133355182Y-94747739D01*
X133296656Y-94840883D01*
X133244321Y-94887173D01*
X133175268Y-94897821D01*
X133111420Y-94869446D01*
X133074622Y-94815865D01*
X133059790Y-94773480D01*
X133055882Y-94767260D01*
X132963816Y-94620738D01*
X132836262Y-94493184D01*
X132763552Y-94447497D01*
X132683523Y-94397211D01*
X132513254Y-94337631D01*
X132513249Y-94337630D01*
X132334004Y-94317435D01*
X132333996Y-94317435D01*
X132154750Y-94337630D01*
X132154745Y-94337631D01*
X131984476Y-94397211D01*
X131831737Y-94493184D01*
X131774432Y-94550490D01*
X131713109Y-94583975D01*
X131643417Y-94578991D01*
X131599070Y-94550490D01*
X131566262Y-94517682D01*
X131413523Y-94421709D01*
X131243254Y-94362129D01*
X131243249Y-94362128D01*
X131064004Y-94341933D01*
X131063996Y-94341933D01*
X130884750Y-94362128D01*
X130884745Y-94362129D01*
X130714476Y-94421709D01*
X130561737Y-94517682D01*
X130434184Y-94645235D01*
X130338209Y-94797978D01*
X130300511Y-94905713D01*
X130259790Y-94962489D01*
X130194837Y-94988236D01*
X130126275Y-94974780D01*
X130075873Y-94926392D01*
X130074207Y-94923001D01*
X130074057Y-94923082D01*
X130071186Y-94917710D01*
X130016997Y-94836611D01*
X130016994Y-94836607D01*
X129987892Y-94807505D01*
X129987888Y-94807502D01*
X129906789Y-94753313D01*
X129906781Y-94753309D01*
X129868757Y-94737558D01*
X129868746Y-94737555D01*
X129773086Y-94718527D01*
X129773082Y-94718527D01*
X129731918Y-94718527D01*
X129731913Y-94718527D01*
X129636253Y-94737555D01*
X129636242Y-94737558D01*
X129598218Y-94753309D01*
X129598210Y-94753313D01*
X129517111Y-94807502D01*
X129517107Y-94807505D01*
X129488005Y-94836607D01*
X129488002Y-94836611D01*
X129433813Y-94917710D01*
X129433809Y-94917718D01*
X129418058Y-94955742D01*
X129418055Y-94955753D01*
X129399027Y-95051413D01*
X129399027Y-95092586D01*
X129418055Y-95188246D01*
X129418058Y-95188257D01*
X129433809Y-95226281D01*
X129433813Y-95226289D01*
X129488002Y-95307388D01*
X129488005Y-95307392D01*
X129519952Y-95339339D01*
X129551143Y-95396461D01*
X129608512Y-95395877D01*
X129622249Y-95400644D01*
X129636247Y-95406443D01*
X129731913Y-95425472D01*
X129731917Y-95425473D01*
X129731918Y-95425473D01*
X129773083Y-95425473D01*
X129773084Y-95425472D01*
X129868753Y-95406443D01*
X129906783Y-95390690D01*
X129987889Y-95336497D01*
X130016997Y-95307389D01*
X130050650Y-95257022D01*
X130104261Y-95212219D01*
X130173586Y-95203510D01*
X130236614Y-95233665D01*
X130273333Y-95293107D01*
X130276972Y-95312027D01*
X130278631Y-95326750D01*
X130278631Y-95326752D01*
X130338211Y-95497021D01*
X130434184Y-95649760D01*
X130559530Y-95775106D01*
X130593015Y-95836429D01*
X130588031Y-95906121D01*
X130546159Y-95962054D01*
X130480695Y-95986471D01*
X130457966Y-95986007D01*
X130302004Y-95968435D01*
X130301996Y-95968435D01*
X130122750Y-95988630D01*
X130122737Y-95988633D01*
X129952476Y-96048210D01*
X129950314Y-96049252D01*
X129948779Y-96049504D01*
X129945906Y-96050510D01*
X129945729Y-96050006D01*
X129881371Y-96060595D01*
X129817240Y-96032865D01*
X129779484Y-95978479D01*
X129775969Y-95968435D01*
X129757789Y-95916478D01*
X129661816Y-95763738D01*
X129534262Y-95636184D01*
X129508819Y-95620197D01*
X129462529Y-95567863D01*
X129458862Y-95544085D01*
X129441117Y-95550704D01*
X129388728Y-95540700D01*
X129388095Y-95542511D01*
X129211254Y-95480631D01*
X129211249Y-95480630D01*
X129032004Y-95460435D01*
X129031996Y-95460435D01*
X128852750Y-95480630D01*
X128852745Y-95480631D01*
X128682476Y-95540211D01*
X128560472Y-95616872D01*
X128493235Y-95635872D01*
X128426400Y-95615504D01*
X128381186Y-95562236D01*
X128370500Y-95511878D01*
X128370500Y-90931996D01*
X129623435Y-90931996D01*
X129623435Y-90932003D01*
X129643630Y-91111249D01*
X129643631Y-91111254D01*
X129703211Y-91281523D01*
X129777379Y-91399560D01*
X129799184Y-91434262D01*
X129926738Y-91561816D01*
X130079478Y-91657789D01*
X130249745Y-91717368D01*
X130249750Y-91717369D01*
X130428996Y-91737565D01*
X130429000Y-91737565D01*
X130429004Y-91737565D01*
X130608249Y-91717369D01*
X130608252Y-91717368D01*
X130608255Y-91717368D01*
X130778522Y-91657789D01*
X130923018Y-91566996D01*
X133687435Y-91566996D01*
X133687435Y-91567003D01*
X133707630Y-91746249D01*
X133707631Y-91746254D01*
X133767211Y-91916523D01*
X133806769Y-91979478D01*
X133863184Y-92069262D01*
X133990738Y-92196816D01*
X134143478Y-92292789D01*
X134246952Y-92328996D01*
X134313745Y-92352368D01*
X134313750Y-92352369D01*
X134492996Y-92372565D01*
X134493000Y-92372565D01*
X134493004Y-92372565D01*
X134672249Y-92352369D01*
X134672252Y-92352368D01*
X134672255Y-92352368D01*
X134842522Y-92292789D01*
X134995262Y-92196816D01*
X135122816Y-92069262D01*
X135218789Y-91916522D01*
X135278368Y-91746255D01*
X135279580Y-91735499D01*
X135298565Y-91567003D01*
X135298565Y-91566996D01*
X135278369Y-91387750D01*
X135278368Y-91387745D01*
X135218788Y-91217476D01*
X135155310Y-91116452D01*
X135122816Y-91064738D01*
X134995262Y-90937184D01*
X134842523Y-90841211D01*
X134672254Y-90781631D01*
X134672249Y-90781630D01*
X134493004Y-90761435D01*
X134492996Y-90761435D01*
X134313750Y-90781630D01*
X134313745Y-90781631D01*
X134143476Y-90841211D01*
X133990737Y-90937184D01*
X133863184Y-91064737D01*
X133767211Y-91217476D01*
X133707631Y-91387745D01*
X133707630Y-91387750D01*
X133687435Y-91566996D01*
X130923018Y-91566996D01*
X130931262Y-91561816D01*
X131058816Y-91434262D01*
X131154789Y-91281522D01*
X131214368Y-91111255D01*
X131214797Y-91107447D01*
X131234565Y-90932003D01*
X131234565Y-90931996D01*
X131214369Y-90752750D01*
X131214368Y-90752745D01*
X131154788Y-90582476D01*
X131154194Y-90581530D01*
X135794000Y-90581530D01*
X135794000Y-90788469D01*
X135834368Y-90991412D01*
X135834370Y-90991420D01*
X135913558Y-91182596D01*
X136028524Y-91354657D01*
X136174842Y-91500975D01*
X136174845Y-91500977D01*
X136346902Y-91615941D01*
X136538080Y-91695130D01*
X136741030Y-91735499D01*
X136741034Y-91735500D01*
X136741035Y-91735500D01*
X136998151Y-91735500D01*
X137065190Y-91755185D01*
X137110945Y-91807989D01*
X137120889Y-91877147D01*
X137103145Y-91925472D01*
X137069211Y-91979476D01*
X137009631Y-92149745D01*
X137009630Y-92149750D01*
X136989435Y-92328996D01*
X136989435Y-92329003D01*
X137009630Y-92508249D01*
X137009631Y-92508254D01*
X137069211Y-92678523D01*
X137074657Y-92687190D01*
X137165184Y-92831262D01*
X137292738Y-92958816D01*
X137445478Y-93054789D01*
X137615745Y-93114368D01*
X137615750Y-93114369D01*
X137794996Y-93134565D01*
X137795000Y-93134565D01*
X137795004Y-93134565D01*
X137974249Y-93114369D01*
X137974252Y-93114368D01*
X137974255Y-93114368D01*
X138144522Y-93054789D01*
X138297262Y-92958816D01*
X138424816Y-92831262D01*
X138520789Y-92678522D01*
X138543046Y-92614914D01*
X138583765Y-92558140D01*
X138648718Y-92532391D01*
X138717280Y-92545846D01*
X138726053Y-92550871D01*
X138848183Y-92627611D01*
X138993681Y-92678523D01*
X139018450Y-92687190D01*
X139018455Y-92687191D01*
X139197701Y-92707387D01*
X139197705Y-92707387D01*
X139197709Y-92707387D01*
X139376954Y-92687191D01*
X139376957Y-92687190D01*
X139376960Y-92687190D01*
X139547227Y-92627611D01*
X139699967Y-92531638D01*
X139827521Y-92404084D01*
X139923494Y-92251344D01*
X139983073Y-92081077D01*
X139983074Y-92081071D01*
X140003270Y-91901825D01*
X140003270Y-91901818D01*
X139983074Y-91722572D01*
X139983073Y-91722567D01*
X139949364Y-91626232D01*
X139923494Y-91552300D01*
X139827521Y-91399560D01*
X139699967Y-91272006D01*
X139683705Y-91261788D01*
X139547228Y-91176033D01*
X139376959Y-91116453D01*
X139376954Y-91116452D01*
X139197709Y-91096257D01*
X139197701Y-91096257D01*
X139018455Y-91116452D01*
X139018447Y-91116454D01*
X138910902Y-91154086D01*
X138841123Y-91157647D01*
X138780496Y-91122918D01*
X138748269Y-91060925D01*
X138754096Y-90997621D01*
X138752862Y-90997247D01*
X138754624Y-90991432D01*
X138754630Y-90991420D01*
X138795000Y-90788465D01*
X138795000Y-90598389D01*
X140094000Y-90598389D01*
X140094000Y-90771611D01*
X140096670Y-90788466D01*
X140119403Y-90932003D01*
X140121098Y-90942701D01*
X140174627Y-91107445D01*
X140253268Y-91261788D01*
X140355086Y-91401928D01*
X140477572Y-91524414D01*
X140617712Y-91626232D01*
X140772055Y-91704873D01*
X140936799Y-91758402D01*
X141107889Y-91785500D01*
X141107890Y-91785500D01*
X141881110Y-91785500D01*
X141881111Y-91785500D01*
X142052201Y-91758402D01*
X142216945Y-91704873D01*
X142371288Y-91626232D01*
X142511428Y-91524414D01*
X142633914Y-91401928D01*
X142735732Y-91261788D01*
X142814373Y-91107445D01*
X142867902Y-90942701D01*
X142895000Y-90771611D01*
X142895000Y-90598389D01*
X142867902Y-90427299D01*
X142814373Y-90262555D01*
X142735732Y-90108212D01*
X142633914Y-89968072D01*
X142511428Y-89845586D01*
X142371288Y-89743768D01*
X142216945Y-89665127D01*
X142052201Y-89611598D01*
X142052199Y-89611597D01*
X142052198Y-89611597D01*
X141900778Y-89587615D01*
X141881111Y-89584500D01*
X141107889Y-89584500D01*
X141088222Y-89587615D01*
X140936802Y-89611597D01*
X140772052Y-89665128D01*
X140617711Y-89743768D01*
X140562592Y-89783815D01*
X140477572Y-89845586D01*
X140477570Y-89845588D01*
X140477569Y-89845588D01*
X140355088Y-89968069D01*
X140355088Y-89968070D01*
X140355086Y-89968072D01*
X140320742Y-90015342D01*
X140253268Y-90108211D01*
X140174628Y-90262552D01*
X140121097Y-90427302D01*
X140096670Y-90581530D01*
X140094000Y-90598389D01*
X138795000Y-90598389D01*
X138795000Y-90581535D01*
X138754630Y-90378580D01*
X138675441Y-90187402D01*
X138560477Y-90015345D01*
X138560475Y-90015342D01*
X138414157Y-89869024D01*
X138242097Y-89754058D01*
X138205960Y-89739090D01*
X138151557Y-89695248D01*
X138129493Y-89628954D01*
X138146773Y-89561255D01*
X138165733Y-89536847D01*
X138172256Y-89530325D01*
X138191657Y-89503621D01*
X138241371Y-89406052D01*
X138251571Y-89374660D01*
X138259184Y-89326590D01*
X138268701Y-89266509D01*
X138268701Y-89233490D01*
X138251571Y-89125343D01*
X138251571Y-89125340D01*
X138241371Y-89093948D01*
X138241369Y-89093945D01*
X138241369Y-89093943D01*
X138191657Y-88996379D01*
X138172256Y-88969675D01*
X138172253Y-88969672D01*
X138172252Y-88969670D01*
X138094830Y-88892248D01*
X138094827Y-88892246D01*
X138094825Y-88892244D01*
X138068121Y-88872843D01*
X138068122Y-88872843D01*
X138068120Y-88872842D01*
X137970556Y-88823130D01*
X137954856Y-88818029D01*
X137939160Y-88812929D01*
X137939158Y-88812928D01*
X137939156Y-88812928D01*
X137831009Y-88795799D01*
X137831004Y-88795799D01*
X137797996Y-88795799D01*
X137797991Y-88795799D01*
X137689843Y-88812928D01*
X137658443Y-88823130D01*
X137560879Y-88872842D01*
X137534172Y-88892246D01*
X137456746Y-88969672D01*
X137437342Y-88996379D01*
X137387630Y-89093943D01*
X137377428Y-89125343D01*
X137360299Y-89233490D01*
X137360299Y-89266509D01*
X137377428Y-89374656D01*
X137387630Y-89406054D01*
X137412164Y-89454205D01*
X137425060Y-89522874D01*
X137398784Y-89587615D01*
X137341677Y-89627872D01*
X137301679Y-89634500D01*
X136741030Y-89634500D01*
X136538087Y-89674868D01*
X136538079Y-89674870D01*
X136346903Y-89754058D01*
X136174842Y-89869024D01*
X136028524Y-90015342D01*
X135913558Y-90187403D01*
X135834370Y-90378579D01*
X135834368Y-90378587D01*
X135794000Y-90581530D01*
X131154194Y-90581530D01*
X131058815Y-90429737D01*
X130931262Y-90302184D01*
X130778523Y-90206211D01*
X130608254Y-90146631D01*
X130608249Y-90146630D01*
X130429004Y-90126435D01*
X130428996Y-90126435D01*
X130249750Y-90146630D01*
X130249745Y-90146631D01*
X130079476Y-90206211D01*
X129926737Y-90302184D01*
X129799184Y-90429737D01*
X129703211Y-90582476D01*
X129643631Y-90752745D01*
X129643630Y-90752750D01*
X129623435Y-90931996D01*
X128370500Y-90931996D01*
X128370500Y-89153996D01*
X131528435Y-89153996D01*
X131528435Y-89154003D01*
X131548630Y-89333249D01*
X131548631Y-89333254D01*
X131608211Y-89503523D01*
X131676119Y-89611597D01*
X131704184Y-89656262D01*
X131831738Y-89783816D01*
X131922080Y-89840582D01*
X131967345Y-89869024D01*
X131984478Y-89879789D01*
X132154745Y-89939368D01*
X132154750Y-89939369D01*
X132333996Y-89959565D01*
X132334000Y-89959565D01*
X132334004Y-89959565D01*
X132513249Y-89939369D01*
X132513252Y-89939368D01*
X132513255Y-89939368D01*
X132683522Y-89879789D01*
X132836262Y-89783816D01*
X132963816Y-89656262D01*
X133059789Y-89503522D01*
X133119368Y-89333255D01*
X133119369Y-89333249D01*
X133139565Y-89154003D01*
X133139565Y-89153996D01*
X133119369Y-88974750D01*
X133119368Y-88974745D01*
X133083711Y-88872843D01*
X133059789Y-88804478D01*
X132963816Y-88651738D01*
X132836262Y-88524184D01*
X132683523Y-88428211D01*
X132513254Y-88368631D01*
X132513249Y-88368630D01*
X132334004Y-88348435D01*
X132333996Y-88348435D01*
X132154750Y-88368630D01*
X132154745Y-88368631D01*
X131984476Y-88428211D01*
X131831737Y-88524184D01*
X131704184Y-88651737D01*
X131608211Y-88804476D01*
X131548631Y-88974745D01*
X131548630Y-88974750D01*
X131528435Y-89153996D01*
X128370500Y-89153996D01*
X128370500Y-87121996D01*
X132544435Y-87121996D01*
X132544435Y-87122003D01*
X132564630Y-87301249D01*
X132564631Y-87301254D01*
X132624211Y-87471523D01*
X132658587Y-87526231D01*
X132720184Y-87624262D01*
X132847738Y-87751816D01*
X133000478Y-87847789D01*
X133170745Y-87907368D01*
X133170750Y-87907369D01*
X133349996Y-87927565D01*
X133350000Y-87927565D01*
X133350004Y-87927565D01*
X133529249Y-87907369D01*
X133529252Y-87907368D01*
X133529255Y-87907368D01*
X133699522Y-87847789D01*
X133852262Y-87751816D01*
X133974082Y-87629996D01*
X138640435Y-87629996D01*
X138640435Y-87630003D01*
X138660630Y-87809249D01*
X138660631Y-87809254D01*
X138720211Y-87979523D01*
X138816184Y-88132262D01*
X138943738Y-88259816D01*
X139096478Y-88355789D01*
X139266745Y-88415368D01*
X139266750Y-88415369D01*
X139445996Y-88435565D01*
X139446000Y-88435565D01*
X139446004Y-88435565D01*
X139625249Y-88415369D01*
X139625252Y-88415368D01*
X139625255Y-88415368D01*
X139795522Y-88355789D01*
X139948262Y-88259816D01*
X140075816Y-88132262D01*
X140171789Y-87979522D01*
X140231368Y-87809255D01*
X140251565Y-87630000D01*
X140250918Y-87624262D01*
X140239873Y-87526231D01*
X140251927Y-87457409D01*
X140275412Y-87424665D01*
X140329816Y-87370262D01*
X140425789Y-87217522D01*
X140485368Y-87047255D01*
X140486119Y-87040591D01*
X140505565Y-86868003D01*
X140505565Y-86867996D01*
X140485369Y-86688750D01*
X140485368Y-86688745D01*
X140425788Y-86518476D01*
X140329815Y-86365737D01*
X140202262Y-86238184D01*
X140049523Y-86142211D01*
X139879254Y-86082631D01*
X139879249Y-86082630D01*
X139700004Y-86062435D01*
X139699996Y-86062435D01*
X139520750Y-86082630D01*
X139520745Y-86082631D01*
X139350476Y-86142211D01*
X139197737Y-86238184D01*
X139070184Y-86365737D01*
X138974211Y-86518476D01*
X138914631Y-86688745D01*
X138914630Y-86688750D01*
X138894435Y-86867996D01*
X138894435Y-86868003D01*
X138906126Y-86971769D01*
X138894071Y-87040591D01*
X138870588Y-87073333D01*
X138816184Y-87127737D01*
X138720211Y-87280476D01*
X138660631Y-87450745D01*
X138660630Y-87450750D01*
X138640435Y-87629996D01*
X133974082Y-87629996D01*
X133979816Y-87624262D01*
X134075789Y-87471522D01*
X134135368Y-87301255D01*
X134137709Y-87280478D01*
X134155565Y-87122003D01*
X134155565Y-87121996D01*
X134135369Y-86942750D01*
X134135368Y-86942745D01*
X134109215Y-86868003D01*
X134075789Y-86772478D01*
X133979816Y-86619738D01*
X133852262Y-86492184D01*
X133699523Y-86396211D01*
X133529254Y-86336631D01*
X133529249Y-86336630D01*
X133350004Y-86316435D01*
X133349996Y-86316435D01*
X133170750Y-86336630D01*
X133170745Y-86336631D01*
X133000476Y-86396211D01*
X132847737Y-86492184D01*
X132720184Y-86619737D01*
X132624211Y-86772476D01*
X132564631Y-86942745D01*
X132564630Y-86942750D01*
X132544435Y-87121996D01*
X128370500Y-87121996D01*
X128370500Y-84454996D01*
X129496435Y-84454996D01*
X129496435Y-84455003D01*
X129516630Y-84634249D01*
X129516631Y-84634254D01*
X129576211Y-84804523D01*
X129656010Y-84931522D01*
X129672184Y-84957262D01*
X129799738Y-85084816D01*
X129952478Y-85180789D01*
X130041148Y-85211816D01*
X130122745Y-85240368D01*
X130122750Y-85240369D01*
X130301996Y-85260565D01*
X130302000Y-85260565D01*
X130302004Y-85260565D01*
X130481249Y-85240369D01*
X130481252Y-85240368D01*
X130481255Y-85240368D01*
X130651522Y-85180789D01*
X130804262Y-85084816D01*
X130931816Y-84957262D01*
X131027789Y-84804522D01*
X131087368Y-84634255D01*
X131087369Y-84634249D01*
X131093256Y-84581996D01*
X132544435Y-84581996D01*
X132544435Y-84582003D01*
X132564630Y-84761249D01*
X132564631Y-84761254D01*
X132624211Y-84931523D01*
X132720184Y-85084262D01*
X132847738Y-85211816D01*
X133000478Y-85307789D01*
X133170745Y-85367368D01*
X133170750Y-85367369D01*
X133349996Y-85387565D01*
X133350000Y-85387565D01*
X133350004Y-85387565D01*
X133529249Y-85367369D01*
X133529252Y-85367368D01*
X133529255Y-85367368D01*
X133699522Y-85307789D01*
X133852262Y-85211816D01*
X133979816Y-85084262D01*
X134075789Y-84931522D01*
X134135368Y-84761255D01*
X134135369Y-84761249D01*
X134155565Y-84582003D01*
X134155565Y-84581996D01*
X134135369Y-84402750D01*
X134135366Y-84402737D01*
X134076192Y-84233628D01*
X134072630Y-84163849D01*
X134107358Y-84103222D01*
X134169352Y-84070994D01*
X134238927Y-84077399D01*
X134280914Y-84104992D01*
X134371738Y-84195816D01*
X134524478Y-84291789D01*
X134694745Y-84351368D01*
X134694750Y-84351369D01*
X134873996Y-84371565D01*
X134874000Y-84371565D01*
X134874004Y-84371565D01*
X135053249Y-84351369D01*
X135053252Y-84351368D01*
X135053255Y-84351368D01*
X135223522Y-84291789D01*
X135376262Y-84195816D01*
X135503816Y-84068262D01*
X135599789Y-83915522D01*
X135599793Y-83915509D01*
X135600275Y-83914510D01*
X135600769Y-83913962D01*
X135603494Y-83909626D01*
X135604252Y-83910102D01*
X135647090Y-83862643D01*
X135714514Y-83844319D01*
X135725883Y-83845073D01*
X135785032Y-83851738D01*
X135889997Y-83863565D01*
X135890000Y-83863565D01*
X135890004Y-83863565D01*
X136069249Y-83843369D01*
X136069252Y-83843368D01*
X136069255Y-83843368D01*
X136239522Y-83783789D01*
X136392262Y-83687816D01*
X136519816Y-83560262D01*
X136615789Y-83407522D01*
X136675368Y-83237255D01*
X136677709Y-83216478D01*
X136680060Y-83195617D01*
X136707126Y-83131203D01*
X136764721Y-83091648D01*
X136803280Y-83085500D01*
X137301679Y-83085500D01*
X137368718Y-83105185D01*
X137414473Y-83157989D01*
X137424417Y-83227147D01*
X137412164Y-83265795D01*
X137387630Y-83313945D01*
X137377428Y-83345343D01*
X137360299Y-83453490D01*
X137360299Y-83486509D01*
X137377428Y-83594656D01*
X137387630Y-83626056D01*
X137419099Y-83687816D01*
X137437343Y-83723621D01*
X137456744Y-83750325D01*
X137456746Y-83750327D01*
X137456748Y-83750330D01*
X137534170Y-83827752D01*
X137534172Y-83827753D01*
X137534175Y-83827756D01*
X137555664Y-83843368D01*
X137560879Y-83847157D01*
X137658443Y-83896869D01*
X137658445Y-83896869D01*
X137658448Y-83896871D01*
X137689840Y-83907071D01*
X137730398Y-83913494D01*
X137797991Y-83924201D01*
X137797996Y-83924201D01*
X137831009Y-83924201D01*
X137895651Y-83913962D01*
X137939160Y-83907071D01*
X137970552Y-83896871D01*
X138068121Y-83847157D01*
X138094825Y-83827756D01*
X138094828Y-83827752D01*
X138094830Y-83827752D01*
X138172252Y-83750330D01*
X138172252Y-83750328D01*
X138172256Y-83750325D01*
X138191657Y-83723621D01*
X138241371Y-83626052D01*
X138251571Y-83594660D01*
X138259184Y-83546590D01*
X138268701Y-83486509D01*
X138268701Y-83453490D01*
X138253190Y-83355565D01*
X138251571Y-83345340D01*
X138241371Y-83313948D01*
X138241369Y-83313945D01*
X138241369Y-83313943D01*
X138191657Y-83216379D01*
X138172256Y-83189675D01*
X138172253Y-83189672D01*
X138172252Y-83189670D01*
X138165733Y-83183151D01*
X138132248Y-83121828D01*
X138137232Y-83052136D01*
X138179104Y-82996203D01*
X138205958Y-82980910D01*
X138242098Y-82965941D01*
X138414155Y-82850977D01*
X138560477Y-82704655D01*
X138675441Y-82532598D01*
X138754630Y-82341420D01*
X138795000Y-82138465D01*
X138795000Y-81948389D01*
X140094000Y-81948389D01*
X140094000Y-82121611D01*
X140096670Y-82138466D01*
X140120711Y-82290262D01*
X140121098Y-82292701D01*
X140174627Y-82457445D01*
X140253268Y-82611788D01*
X140355086Y-82751928D01*
X140477572Y-82874414D01*
X140617712Y-82976232D01*
X140772055Y-83054873D01*
X140936799Y-83108402D01*
X141107889Y-83135500D01*
X141107890Y-83135500D01*
X141881110Y-83135500D01*
X141881111Y-83135500D01*
X142052201Y-83108402D01*
X142216945Y-83054873D01*
X142371288Y-82976232D01*
X142511428Y-82874414D01*
X142633914Y-82751928D01*
X142735732Y-82611788D01*
X142814373Y-82457445D01*
X142867902Y-82292701D01*
X142895000Y-82121611D01*
X142895000Y-81948389D01*
X142867902Y-81777299D01*
X142814373Y-81612555D01*
X142735732Y-81458212D01*
X142633914Y-81318072D01*
X142518763Y-81202921D01*
X142485278Y-81141598D01*
X142490262Y-81071906D01*
X142532134Y-81015973D01*
X142565491Y-80998198D01*
X142570609Y-80996406D01*
X142589522Y-80989789D01*
X142742262Y-80893816D01*
X142869816Y-80766262D01*
X142965789Y-80613522D01*
X143025368Y-80443255D01*
X143027709Y-80422478D01*
X143045565Y-80264003D01*
X143045565Y-80263996D01*
X143025369Y-80084750D01*
X143025368Y-80084745D01*
X142991036Y-79986630D01*
X142965789Y-79914478D01*
X142949267Y-79888184D01*
X142869815Y-79761737D01*
X142742262Y-79634184D01*
X142589523Y-79538211D01*
X142419254Y-79478631D01*
X142419249Y-79478630D01*
X142240004Y-79458435D01*
X142239996Y-79458435D01*
X142060750Y-79478630D01*
X142060745Y-79478631D01*
X141890476Y-79538211D01*
X141737737Y-79634184D01*
X141610184Y-79761737D01*
X141514211Y-79914476D01*
X141454631Y-80084745D01*
X141454630Y-80084750D01*
X141434435Y-80263996D01*
X141434435Y-80264003D01*
X141454630Y-80443249D01*
X141454631Y-80443254D01*
X141514211Y-80613522D01*
X141566823Y-80697254D01*
X141596528Y-80744528D01*
X141615528Y-80811764D01*
X141595160Y-80878600D01*
X141541893Y-80923814D01*
X141491534Y-80934500D01*
X141107889Y-80934500D01*
X141068228Y-80940781D01*
X140936802Y-80961597D01*
X140772052Y-81015128D01*
X140617711Y-81093768D01*
X140551880Y-81141598D01*
X140477572Y-81195586D01*
X140477570Y-81195588D01*
X140477569Y-81195588D01*
X140355088Y-81318069D01*
X140355088Y-81318070D01*
X140355086Y-81318072D01*
X140320742Y-81365342D01*
X140253268Y-81458211D01*
X140174628Y-81612552D01*
X140121097Y-81777302D01*
X140098467Y-81920184D01*
X140094000Y-81948389D01*
X138795000Y-81948389D01*
X138795000Y-81931535D01*
X138754630Y-81728580D01*
X138733983Y-81678736D01*
X138726515Y-81609268D01*
X138757790Y-81546788D01*
X138817879Y-81511136D01*
X138887704Y-81513629D01*
X138889500Y-81514243D01*
X139012737Y-81557366D01*
X139012743Y-81557367D01*
X139012745Y-81557368D01*
X139012746Y-81557368D01*
X139012750Y-81557369D01*
X139191996Y-81577565D01*
X139192000Y-81577565D01*
X139192004Y-81577565D01*
X139371249Y-81557369D01*
X139371252Y-81557368D01*
X139371255Y-81557368D01*
X139541522Y-81497789D01*
X139694262Y-81401816D01*
X139821816Y-81274262D01*
X139917789Y-81121522D01*
X139977368Y-80951255D01*
X139984346Y-80889324D01*
X139997565Y-80772003D01*
X139997565Y-80771996D01*
X139977369Y-80592750D01*
X139977368Y-80592745D01*
X139951215Y-80518003D01*
X139917789Y-80422478D01*
X139821816Y-80269738D01*
X139694262Y-80142184D01*
X139694260Y-80142183D01*
X139541523Y-80046211D01*
X139371254Y-79986631D01*
X139371249Y-79986630D01*
X139192004Y-79966435D01*
X139191996Y-79966435D01*
X139012750Y-79986630D01*
X139012745Y-79986631D01*
X138842476Y-80046211D01*
X138689739Y-80142183D01*
X138603231Y-80228691D01*
X138541907Y-80262175D01*
X138472216Y-80257191D01*
X138416282Y-80215319D01*
X138398509Y-80181964D01*
X138393790Y-80168480D01*
X138393789Y-80168478D01*
X138297816Y-80015738D01*
X138170262Y-79888184D01*
X138017523Y-79792211D01*
X137847254Y-79732631D01*
X137847249Y-79732630D01*
X137668004Y-79712435D01*
X137667996Y-79712435D01*
X137488750Y-79732630D01*
X137488745Y-79732631D01*
X137318476Y-79792211D01*
X137165737Y-79888184D01*
X137038184Y-80015737D01*
X136942211Y-80168476D01*
X136882631Y-80338745D01*
X136882630Y-80338750D01*
X136862435Y-80517996D01*
X136862435Y-80518003D01*
X136882630Y-80697249D01*
X136882631Y-80697254D01*
X136925423Y-80819545D01*
X136928984Y-80889324D01*
X136894255Y-80949952D01*
X136832262Y-80982179D01*
X136808381Y-80984500D01*
X136741030Y-80984500D01*
X136538087Y-81024868D01*
X136538079Y-81024870D01*
X136346903Y-81104058D01*
X136174842Y-81219024D01*
X136028524Y-81365342D01*
X135913558Y-81537403D01*
X135834370Y-81728579D01*
X135834368Y-81728587D01*
X135794000Y-81931530D01*
X135794000Y-82138473D01*
X135794446Y-82143004D01*
X135781424Y-82211649D01*
X135733357Y-82262357D01*
X135711997Y-82272194D01*
X135540478Y-82332210D01*
X135387737Y-82428184D01*
X135260184Y-82555737D01*
X135164209Y-82708479D01*
X135163715Y-82709507D01*
X135163218Y-82710056D01*
X135160506Y-82714374D01*
X135159749Y-82713898D01*
X135116892Y-82761367D01*
X135049465Y-82779679D01*
X135038112Y-82778925D01*
X134874004Y-82760435D01*
X134873994Y-82760435D01*
X134791356Y-82769745D01*
X134722534Y-82757690D01*
X134671155Y-82710340D01*
X134653532Y-82642730D01*
X134654254Y-82632642D01*
X134663565Y-82550003D01*
X134663565Y-82549996D01*
X134643369Y-82370750D01*
X134643368Y-82370745D01*
X134609037Y-82272632D01*
X134583789Y-82200478D01*
X134487816Y-82047738D01*
X134360262Y-81920184D01*
X134207523Y-81824211D01*
X134037254Y-81764631D01*
X134037249Y-81764630D01*
X133858004Y-81744435D01*
X133857996Y-81744435D01*
X133678750Y-81764630D01*
X133678745Y-81764631D01*
X133508476Y-81824211D01*
X133355737Y-81920184D01*
X133228184Y-82047737D01*
X133132211Y-82200476D01*
X133072631Y-82370745D01*
X133072630Y-82370750D01*
X133052435Y-82549996D01*
X133052435Y-82550003D01*
X133072630Y-82729249D01*
X133072631Y-82729254D01*
X133132211Y-82899523D01*
X133180411Y-82976232D01*
X133228184Y-83052262D01*
X133355738Y-83179816D01*
X133413928Y-83216379D01*
X133492572Y-83265795D01*
X133508478Y-83275789D01*
X133599712Y-83307713D01*
X133678745Y-83335368D01*
X133678750Y-83335369D01*
X133857996Y-83355565D01*
X133858000Y-83355565D01*
X133858004Y-83355565D01*
X133940642Y-83346254D01*
X134009463Y-83358308D01*
X134060843Y-83405658D01*
X134078467Y-83473268D01*
X134077745Y-83483356D01*
X134068435Y-83565994D01*
X134068435Y-83566003D01*
X134088630Y-83745249D01*
X134088632Y-83745257D01*
X134147808Y-83914372D01*
X134151369Y-83984150D01*
X134116640Y-84044778D01*
X134054647Y-84077005D01*
X133985071Y-84070600D01*
X133943085Y-84043007D01*
X133852262Y-83952184D01*
X133699523Y-83856211D01*
X133529254Y-83796631D01*
X133529249Y-83796630D01*
X133350004Y-83776435D01*
X133349996Y-83776435D01*
X133170750Y-83796630D01*
X133170745Y-83796631D01*
X133000476Y-83856211D01*
X132847737Y-83952184D01*
X132720184Y-84079737D01*
X132624211Y-84232476D01*
X132564631Y-84402745D01*
X132564630Y-84402750D01*
X132544435Y-84581996D01*
X131093256Y-84581996D01*
X131107565Y-84455003D01*
X131107565Y-84454996D01*
X131087369Y-84275750D01*
X131087368Y-84275748D01*
X131087368Y-84275745D01*
X131084837Y-84268514D01*
X131081275Y-84198737D01*
X131114196Y-84139881D01*
X131185816Y-84068262D01*
X131281789Y-83915522D01*
X131341368Y-83745255D01*
X131347840Y-83687815D01*
X131361565Y-83566003D01*
X131361565Y-83565996D01*
X131341369Y-83386750D01*
X131341368Y-83386745D01*
X131315893Y-83313943D01*
X131281789Y-83216478D01*
X131264944Y-83189670D01*
X131185815Y-83063737D01*
X131058262Y-82936184D01*
X130905523Y-82840211D01*
X130735254Y-82780631D01*
X130735249Y-82780630D01*
X130556004Y-82760435D01*
X130555996Y-82760435D01*
X130376750Y-82780630D01*
X130376745Y-82780631D01*
X130206476Y-82840211D01*
X130053737Y-82936184D01*
X129926184Y-83063737D01*
X129830211Y-83216476D01*
X129770631Y-83386745D01*
X129770630Y-83386750D01*
X129750435Y-83565996D01*
X129750435Y-83566003D01*
X129770630Y-83745249D01*
X129770633Y-83745260D01*
X129773161Y-83752485D01*
X129776722Y-83822264D01*
X129743801Y-83881118D01*
X129672187Y-83952733D01*
X129672186Y-83952734D01*
X129576211Y-84105476D01*
X129516631Y-84275745D01*
X129516630Y-84275750D01*
X129496435Y-84454996D01*
X128370500Y-84454996D01*
X128370500Y-81787996D01*
X131274435Y-81787996D01*
X131274435Y-81788003D01*
X131294630Y-81967249D01*
X131294631Y-81967254D01*
X131354211Y-82137523D01*
X131393769Y-82200478D01*
X131450184Y-82290262D01*
X131577738Y-82417816D01*
X131730478Y-82513789D01*
X131900745Y-82573368D01*
X131900750Y-82573369D01*
X132079996Y-82593565D01*
X132080000Y-82593565D01*
X132080004Y-82593565D01*
X132259249Y-82573369D01*
X132259252Y-82573368D01*
X132259255Y-82573368D01*
X132429522Y-82513789D01*
X132582262Y-82417816D01*
X132709816Y-82290262D01*
X132805789Y-82137522D01*
X132865368Y-81967255D01*
X132869393Y-81931534D01*
X132885565Y-81788003D01*
X132885565Y-81787996D01*
X132865369Y-81608750D01*
X132865368Y-81608745D01*
X132805788Y-81438476D01*
X132730133Y-81318072D01*
X132709816Y-81285738D01*
X132582262Y-81158184D01*
X132555866Y-81141598D01*
X132429523Y-81062211D01*
X132259254Y-81002631D01*
X132259249Y-81002630D01*
X132080004Y-80982435D01*
X132079996Y-80982435D01*
X131900750Y-81002630D01*
X131900745Y-81002631D01*
X131730476Y-81062211D01*
X131577737Y-81158184D01*
X131450184Y-81285737D01*
X131354211Y-81438476D01*
X131294631Y-81608745D01*
X131294630Y-81608750D01*
X131274435Y-81787996D01*
X128370500Y-81787996D01*
X128370500Y-80263996D01*
X129496435Y-80263996D01*
X129496435Y-80264003D01*
X129516630Y-80443249D01*
X129516631Y-80443254D01*
X129576211Y-80613523D01*
X129628820Y-80697249D01*
X129672184Y-80766262D01*
X129799738Y-80893816D01*
X129864486Y-80934500D01*
X129944060Y-80984500D01*
X129952478Y-80989789D01*
X130024890Y-81015127D01*
X130122745Y-81049368D01*
X130122750Y-81049369D01*
X130301996Y-81069565D01*
X130302000Y-81069565D01*
X130302004Y-81069565D01*
X130481249Y-81049369D01*
X130481252Y-81049368D01*
X130481255Y-81049368D01*
X130651522Y-80989789D01*
X130804262Y-80893816D01*
X130931816Y-80766262D01*
X131027789Y-80613522D01*
X131087368Y-80443255D01*
X131089709Y-80422478D01*
X131107565Y-80264003D01*
X131107565Y-80263996D01*
X133814435Y-80263996D01*
X133814435Y-80264003D01*
X133834630Y-80443249D01*
X133834631Y-80443254D01*
X133894211Y-80613523D01*
X133946820Y-80697249D01*
X133990184Y-80766262D01*
X134117738Y-80893816D01*
X134182486Y-80934500D01*
X134262060Y-80984500D01*
X134270478Y-80989789D01*
X134342890Y-81015127D01*
X134440745Y-81049368D01*
X134440750Y-81049369D01*
X134619996Y-81069565D01*
X134620000Y-81069565D01*
X134620004Y-81069565D01*
X134799249Y-81049369D01*
X134799252Y-81049368D01*
X134799255Y-81049368D01*
X134969522Y-80989789D01*
X135122262Y-80893816D01*
X135249816Y-80766262D01*
X135345789Y-80613522D01*
X135405368Y-80443255D01*
X135407709Y-80422478D01*
X135425565Y-80264003D01*
X135425565Y-80263996D01*
X135405369Y-80084750D01*
X135405368Y-80084745D01*
X135371036Y-79986630D01*
X135345789Y-79914478D01*
X135329267Y-79888184D01*
X135249815Y-79761737D01*
X135122262Y-79634184D01*
X134969523Y-79538211D01*
X134799254Y-79478631D01*
X134799249Y-79478630D01*
X134620004Y-79458435D01*
X134619996Y-79458435D01*
X134440750Y-79478630D01*
X134440745Y-79478631D01*
X134270476Y-79538211D01*
X134117737Y-79634184D01*
X133990184Y-79761737D01*
X133894211Y-79914476D01*
X133834631Y-80084745D01*
X133834630Y-80084750D01*
X133814435Y-80263996D01*
X131107565Y-80263996D01*
X131087369Y-80084750D01*
X131087368Y-80084745D01*
X131053036Y-79986630D01*
X131027789Y-79914478D01*
X131011267Y-79888184D01*
X130931815Y-79761737D01*
X130804262Y-79634184D01*
X130651523Y-79538211D01*
X130481254Y-79478631D01*
X130481249Y-79478630D01*
X130302004Y-79458435D01*
X130301996Y-79458435D01*
X130122750Y-79478630D01*
X130122745Y-79478631D01*
X129952476Y-79538211D01*
X129799737Y-79634184D01*
X129672184Y-79761737D01*
X129576211Y-79914476D01*
X129516631Y-80084745D01*
X129516630Y-80084750D01*
X129496435Y-80263996D01*
X128370500Y-80263996D01*
X128370500Y-78864000D01*
X128390185Y-78796961D01*
X128442989Y-78751206D01*
X128494500Y-78740000D01*
X143793500Y-78740000D01*
X143860539Y-78759685D01*
G37*
%TD.AperFunction*%
%TD*%
M02*
